<?xml version="1.0" encoding="UTF-8"?>
<svg version="1.1" xmlns="http://www.w3.org/2000/svg" width="379" height="169">
<path d="M0 0 C3.49740001 2.84612464 6.78467297 5.83991914 10 9 C10.62648437 9.61359375 11.25296875 10.2271875 11.8984375 10.859375 C23.31643377 22.94901811 30.63610068 40.37260042 31 57 C31.02707031 57.91007812 31.05414063 58.82015625 31.08203125 59.7578125 C31.18957182 66.62085635 31.18957182 66.62085635 30 69 C33.96 69 37.92 69 42 69 C42 69.66 42 70.32 42 71 C42.99 70.67 43.98 70.34 45 70 C52.41455067 67.93047682 59.1009528 68.69291633 66 72 C70.9501109 75.2458174 73.67359648 78.50764565 76 84 C76.34057617 87.61865234 76.34057617 87.61865234 76.29296875 91.5859375 C76.28872391 92.28772125 76.28447906 92.989505 76.28010559 93.71255493 C76.26343599 95.9337756 76.22580872 98.15405788 76.1875 100.375 C76.17243788 101.88930973 76.15875216 103.40363381 76.14648438 104.91796875 C76.11613398 108.61262341 76.05739795 112.30527292 76 116 C70.72 116 65.44 116 60 116 C59.67 105.44 59.34 94.88 59 84 C54.98131626 82.99532907 52.11152256 82.56720815 48 83 C44.76892075 85.54545784 43.19614264 87.06663408 42.34057617 91.13793945 C42.32486572 92.28480225 42.30915527 93.43166504 42.29296875 94.61328125 C42.26396484 95.86044922 42.23496094 97.10761719 42.20507812 98.39257812 C42.19637695 100.33293945 42.19637695 100.33293945 42.1875 102.3125 C42.16236328 103.62541016 42.13722656 104.93832031 42.11132812 106.29101562 C42.05249165 109.52702167 42.02337559 112.76354354 42 116 C37.05 116 32.1 116 27 116 C26.67 107.42 26.34 98.84 26 90 C23.90973546 94.37664862 23.90973546 94.37664862 21.84301758 98.7644043 C19.78146446 102.98224541 17.48553592 105.85157981 14 109 C13 108 13 108 12.88647461 104.39819336 C12.88663375 102.79540144 12.89232937 101.1926044 12.90234375 99.58984375 C12.90446617 98.32679161 12.90446617 98.32679161 12.90663147 97.03822327 C12.91224737 94.33794665 12.92480252 91.63775172 12.9375 88.9375 C12.94251295 87.11132932 12.94707621 85.28515734 12.95117188 83.45898438 C12.96222196 78.97262458 12.97949721 74.48632616 13 70 C8.38 70 3.76 70 -1 70 C-1 85.18 -1 100.36 -1 116 C1.97 116 4.94 116 8 116 C5.03075955 120.14380485 1.72224006 122.83764857 -2.5625 125.5 C-3.18237793 125.88945801 -3.80225586 126.27891602 -4.44091797 126.68017578 C-20.55877218 136.62276572 -38.10751727 140.8295193 -57 138 C-56.59007813 137.48050781 -56.18015625 136.96101562 -55.7578125 136.42578125 C-55.21898438 135.72839844 -54.68015625 135.03101563 -54.125 134.3125 C-53.59132813 133.62800781 -53.05765625 132.94351563 -52.5078125 132.23828125 C-49.70487029 128.07743698 -48.75127226 124.46554265 -48.68115234 119.4753418 C-48.66128265 118.39459885 -48.64141296 117.3138559 -48.62094116 116.20036316 C-48.60938995 115.0449855 -48.59783875 113.88960785 -48.5859375 112.69921875 C-48.56657135 111.50770706 -48.5472052 110.31619537 -48.5272522 109.08857727 C-48.46754104 105.28829068 -48.42110419 101.48797366 -48.375 97.6875 C-48.3368125 95.10871085 -48.29776032 92.52993435 -48.2578125 89.95117188 C-48.16184616 83.63421749 -48.07778327 77.31720339 -48 71 C-52.62 71 -57.24 71 -62 71 C-61.97905273 72.55428711 -61.95810547 74.10857422 -61.93652344 75.70996094 C-61.86416622 81.47223714 -61.81821522 87.23447313 -61.78027344 92.99707031 C-61.76014836 95.49193065 -61.73284548 97.98674378 -61.69824219 100.48144531 C-61.64976543 104.06587368 -61.6270398 107.64967885 -61.609375 111.234375 C-61.58872986 112.35116638 -61.56808472 113.46795776 -61.54681396 114.61859131 C-61.54651184 115.65936829 -61.54620972 116.70014526 -61.54589844 117.77246094 C-61.53701599 118.68735291 -61.52813354 119.60224487 -61.51898193 120.54486084 C-62.15102779 123.77085306 -63.46823829 124.97495761 -66 127 C-68.86090492 127.22970769 -71.1483956 126.57032088 -74 126 C-74.495 128.97 -74.495 128.97 -75 132 C-88.18968806 130.15097831 -99.39778426 119.41913354 -107.29345703 109.35058594 C-120.21222366 91.96638641 -124.87338334 71.53368194 -122.25 50.125 C-118.92447676 29.03298275 -107.79199214 11.71239152 -90.8359375 -1.125 C-62.62961446 -19.77380862 -27.76589269 -20.31551386 0 0 Z M-63 46 C-64.44430855 48.88861709 -64.37688506 50.79647701 -64 54 C-61.73992616 56.90580922 -59.97589471 58.59963294 -56.5625 60 C-52.88731632 60 -50.9916926 59.12742585 -48 57 C-46.07626552 52.9216829 -45.66651386 50.98193141 -47.125 46.6875 C-49.03406837 43.95116867 -49.84785299 42.92710206 -53 42 C-57.64886895 41.28478939 -59.66075868 42.84627209 -63 46 Z M-1 45 C-2.92863839 47.54229606 -3.00902291 48.78345018 -2.875 52 C-1.85086454 55.51132158 -0.94548102 56.85059493 2 59 C4.8596006 60.17110449 4.8596006 60.17110449 8 60 C12.2420814 57.75278859 12.2420814 57.75278859 15 54 C15.40820726 50.32613468 15.24841035 48.44713863 13.4375 45.1875 C8.71038186 40.94521449 3.82916491 40.99869193 -1 45 Z M-35 54 C-35 59.28 -35 64.56 -35 70 C-36.98 70 -38.96 70 -41 70 C-41 73.63 -41 77.26 -41 81 C-39.35 81.33 -37.7 81.66 -36 82 C-35.98541748 82.64026123 -35.97083496 83.28052246 -35.95581055 83.94018555 C-35.88108618 86.85654831 -35.78450707 89.77179687 -35.6875 92.6875 C-35.66494141 93.69490234 -35.64238281 94.70230469 -35.61914062 95.74023438 C-35.36273068 102.80316297 -34.38433307 106.43684195 -29.5 111.6875 C-25.27002601 115.01255418 -20.26651883 115.7400167 -15 116 C-12.12325731 115.61613324 -9.76575433 114.93931279 -7 114 C-7.99 110.37 -8.98 106.74 -10 103 C-11.918125 103.0309375 -11.918125 103.0309375 -13.875 103.0625 C-17.75 103.125 -17.75 103.125 -20 102 C-20.33 95.07 -20.66 88.14 -21 81 C-16.71 81 -12.42 81 -8 81 C-8 77.37 -8 73.74 -8 70 C-12.29 70 -16.58 70 -21 70 C-21 64.72 -21 59.44 -21 54 C-25.62 54 -30.24 54 -35 54 Z " fill="#D73D40" transform="translate(126,20)"/>
<path d="M0 0 C0.495 0.99 0.495 0.99 1 2 C-1.31 2 -3.62 2 -6 2 C-5.99333817 2.68460297 -5.98667633 3.36920593 -5.97981262 4.07455444 C-5.9136078 11.17921263 -5.86826132 18.28378368 -5.83520508 25.38867188 C-5.82008855 28.04267941 -5.79959505 30.69666186 -5.77368164 33.35058594 C-5.73742479 37.158266 -5.72030237 40.96561675 -5.70703125 44.7734375 C-5.69154739 45.96617279 -5.67606354 47.15890808 -5.66011047 48.38778687 C-5.65988388 49.48877716 -5.65965729 50.58976746 -5.65942383 51.72412109 C-5.65276199 52.69674896 -5.64610016 53.66937683 -5.63923645 54.67147827 C-5.75828842 55.43989044 -5.87734039 56.20830261 -6 57 C-10.1795645 59.78637633 -12.14668677 58.79562512 -17 58 C-17.33 59.98 -17.66 61.96 -18 64 C-28.64401552 62.54218924 -37.89148755 54.78167896 -45.20703125 47.39453125 C-47.11632181 44.84465082 -47.6602838 43.13541341 -48 40 C-48.33 40 -48.66 40 -49 40 C-50.28575119 26.81236282 -50.41934492 16.95887559 -42 6 C-41.34 6 -40.68 6 -40 6 C-39.67 5.01 -39.34 4.02 -39 3 C-27.95108747 -5.62354149 -12.28598142 -7.48079757 0 0 Z " fill="#AF3436" transform="translate(69,88)"/>
<path d="M0 0 C0 -0.66 0 -1.32 0 -2 C2.47923801 -2.02685095 4.9581884 -2.04676547 7.4375 -2.0625 C8.14455078 -2.07087891 8.85160156 -2.07925781 9.58007812 -2.08789062 C11.38693559 -2.09653588 13.19387603 -2.05220011 15 -2 C16 -1 16 -1 16.12025452 0.86659241 C16.11803391 1.68155685 16.11581329 2.4965213 16.11352539 3.33618164 C16.11344986 4.2570607 16.11337433 5.17793976 16.11329651 6.12672424 C16.10813522 7.12775681 16.10297394 8.12878937 16.09765625 9.16015625 C16.0962413 10.17975937 16.09482635 11.19936249 16.09336853 12.24986267 C16.08775097 15.52077107 16.0751955 18.79161213 16.0625 22.0625 C16.05748726 24.27408756 16.05292396 26.48567618 16.04882812 28.69726562 C16.03777583 34.13153654 16.02049944 39.56575684 16 45 C10.72 45 5.44 45 0 45 C0 44.34 0 43.68 0 43 C-0.68964844 43.3196875 -1.37929688 43.639375 -2.08984375 43.96875 C-9.7899549 46.69737999 -18.13741919 45.88071682 -25.5 42.5625 C-31.84582277 39.0125671 -34.82808404 34.34383191 -38 28 C-38.70605914 20.87888921 -38.97757179 14.59889784 -34.54296875 8.7109375 C-25.08691209 -1.77451267 -13.4429878 -4.67582184 0 0 Z M-20.875 14.625 C-22.66648211 18.40701778 -22.73678605 21.90516986 -22 26 C-20.68448123 28.93555578 -19.60400624 29.8299948 -17 32 C-12.86241139 33.50380531 -9.83161807 33.28243633 -5.6875 31.875 C-2.65386826 29.75851274 -1.39873219 28.41912313 0 25 C0.40359922 21.23307391 0.31158806 18.76165971 -1.125 15.25 C-3.47164474 12.43402631 -5.59732757 11.31940359 -9 10 C-14.01100379 10 -17.08862304 11.3434733 -20.875 14.625 Z " fill="#E04843" transform="translate(359,91)"/>
<path d="M0 0 C4.65054228 3.765188 7.68786705 7.63507749 8.9296875 13.57421875 C9.64023917 20.42347093 9.09548482 25.94980893 4.9296875 31.57421875 C-0.38186297 37.31207587 -5.65617727 41.17520088 -13.52734375 41.88671875 C-24.03302727 42.22189509 -31.75817605 40.55556831 -39.5625 33.33203125 C-43.80912258 28.38130545 -45.871287 22.40690285 -45.5078125 15.8984375 C-44.00926161 7.93738588 -39.87140823 2.48857127 -33.31640625 -2.0859375 C-22.97909949 -8.25236571 -9.67751131 -6.66470119 0 0 Z M-27.0703125 10.57421875 C-29.64105189 14.00187127 -29.50068702 17.41393171 -29.0703125 21.57421875 C-26.8115188 25.81450494 -26.8115188 25.81450494 -23.0703125 28.57421875 C-18.2412025 29.09559169 -14.32864404 29.30824548 -10.0703125 26.82421875 C-6.97153532 23.33809443 -6.04617117 21.9019919 -6.1328125 17.13671875 C-7.23687256 12.94129053 -8.80756819 11.34755141 -12.0703125 8.57421875 C-12.4003125 8.24421875 -12.7303125 7.91421875 -13.0703125 7.57421875 C-18.38436513 7.00328748 -22.83323057 6.97911893 -27.0703125 10.57421875 Z " fill="#DF4742" transform="translate(252.0703125,94.42578125)"/>
<path d="M0 0 C1.48831242 0.00667405 2.97660807 0.01863442 4.46484375 0.03515625 C5.22345703 0.03966797 5.98207031 0.04417969 6.76367188 0.04882812 C8.64326246 0.06064945 10.52281274 0.07858547 12.40234375 0.09765625 C16.68502666 7.98735608 20.91507759 15.81539911 24.40234375 24.09765625 C26.5563772 21.37825665 28.1756911 18.73281125 29.62890625 15.5859375 C30.02078125 14.74611328 30.41265625 13.90628906 30.81640625 13.04101562 C31.21601563 12.17283203 31.615625 11.30464844 32.02734375 10.41015625 C32.83016376 8.67621746 33.63475638 6.94309791 34.44140625 5.2109375 C34.79412598 4.44563721 35.1468457 3.68033691 35.51025391 2.8918457 C36.40234375 1.09765625 36.40234375 1.09765625 37.40234375 0.09765625 C40.09889229 0.02446004 42.76925833 0.00523088 45.46484375 0.03515625 C46.22345703 0.03966797 46.98207031 0.04417969 47.76367188 0.04882812 C49.64326246 0.06064945 51.52281274 0.07858547 53.40234375 0.09765625 C53.89734375 1.08765625 53.89734375 1.08765625 54.40234375 2.09765625 C53.33222004 4.66503623 52.19720396 7.11309384 50.95703125 9.59765625 C50.59014191 10.34797119 50.22325256 11.09828613 49.84524536 11.87133789 C48.66335081 14.28382946 47.47048206 16.69070883 46.27734375 19.09765625 C45.49537541 20.68975155 44.71411695 22.28219573 43.93359375 23.875 C40.12611682 31.63395188 36.27998105 39.37352734 32.40234375 47.09765625 C27.45234375 47.09765625 22.50234375 47.09765625 17.40234375 47.09765625 C16.84546875 45.91171875 16.28859375 44.72578125 15.71484375 43.50390625 C11.62922236 34.82782057 7.48294305 26.19329188 3.16015625 17.6328125 C0.42146451 12.1888277 -2.14004545 6.6745423 -4.59765625 1.09765625 C-3.59765625 0.09765625 -3.59765625 0.09765625 0 0 Z " fill="#DF4742" transform="translate(264.59765625,88.90234375)"/>
<path d="M0 0 C5.28 0 10.56 0 16 0 C16.33 16.83 16.66 33.66 17 51 C23.5367172 44.87204685 23.5367172 44.87204685 28 38 C30.8057428 38.4156656 31.95706934 38.9596712 34.0625 40.9375 C39.47516488 44.73788173 46.19440994 45.42219433 52.6875 44.625 C53.780625 44.41875 54.87375 44.2125 56 44 C55.731875 43.29875 55.46375 42.5975 55.1875 41.875 C55.125625 40.92625 55.06375 39.9775 55 39 C55.80655029 38.1116748 56.61310059 37.22334961 57.4440918 36.30810547 C60.45027336 32.86728172 60.73239281 29.65069967 60.70703125 25.1953125 C60.72215256 24.4713327 60.73727386 23.74735291 60.75285339 23.00143433 C60.79554044 20.70896805 60.80454885 18.41782314 60.8125 16.125 C60.83565946 14.56246534 60.86102782 12.99996176 60.88867188 11.4375 C60.95133504 7.6248842 60.98381866 3.81308489 61 0 C61.33 0 61.66 0 62 0 C62 15.18 62 30.36 62 46 C64.97 46 67.94 46 71 46 C68.03075955 50.14380485 64.72224006 52.83764857 60.4375 55.5 C59.81762207 55.88945801 59.19774414 56.27891602 58.55908203 56.68017578 C42.44122782 66.62276572 24.89248273 70.8295193 6 68 C6.40992187 67.48050781 6.81984375 66.96101563 7.2421875 66.42578125 C7.78101562 65.72839844 8.31984375 65.03101563 8.875 64.3125 C9.67550781 63.28576172 9.67550781 63.28576172 10.4921875 62.23828125 C13.29512971 58.07743698 14.24872774 54.46554265 14.31884766 49.4753418 C14.33871735 48.39459885 14.35858704 47.3138559 14.37905884 46.20036316 C14.39638565 44.46729668 14.39638565 44.46729668 14.4140625 42.69921875 C14.43342865 41.50770706 14.4527948 40.31619537 14.4727478 39.08857727 C14.53245896 35.28829068 14.57889581 31.48797366 14.625 27.6875 C14.6631875 25.10871085 14.70223968 22.52993435 14.7421875 19.95117188 C14.83815384 13.63421749 14.92221673 7.31720339 15 1 C10.38 1 5.76 1 1 1 C1 18.16 1 35.32 1 53 C0.67 53 0.34 53 0 53 C0 35.51 0 18.02 0 0 Z " fill="#E14749" transform="translate(63,90)"/>
<path d="M0 0 C5.28 0 10.56 0 16 0 C16.33 16.83 16.66 33.66 17 51 C23.5367172 44.87204685 23.5367172 44.87204685 28 38 C31.89364717 38.57683662 34.01189041 40.54821777 37 43 C37.99 43.33 38.98 43.66 40 44 C40 44.66 40 45.32 40 46 C42.64 46.33 45.28 46.66 48 47 C47.34 47.99 46.68 48.98 46 50 C45.34 50 44.68 50 44 50 C43.67 50.99 43.34 51.98 43 53 C40.5762107 54.47872016 38.23090052 55.76234115 35.6875 57 C34.96925049 57.35449219 34.25100098 57.70898438 33.51098633 58.07421875 C26.72125887 61.31941442 19.612135 64 12 64 C12.48578543 60.87709365 12.9986012 58.00419641 14 55 C14.11572967 53.23659857 14.17649075 51.46935231 14.20532227 49.70239258 C14.22526749 48.62149857 14.24521271 47.54060455 14.26576233 46.42695618 C14.28247482 45.26125595 14.29918732 44.09555573 14.31640625 42.89453125 C14.3475779 41.10301888 14.3475779 41.10301888 14.37937927 39.27531433 C14.44484276 35.45443557 14.5037451 31.63348724 14.5625 27.8125 C14.60568824 25.22460214 14.64930263 22.63671135 14.69335938 20.04882812 C14.80052095 13.69929032 14.90179764 7.34968244 15 1 C10.38 1 5.76 1 1 1 C1 18.16 1 35.32 1 53 C0.67 53 0.34 53 0 53 C0 35.51 0 18.02 0 0 Z " fill="#D14F54" transform="translate(63,90)"/>
<path d="M0 0 C3.75376152 1.25125384 4.24073289 2.5652404 6 6 C6 6.66 6 7.32 6 8 C6.66 8 7.32 8 8 8 C8 5.69 8 3.38 8 1 C8.99 1 9.98 1 11 1 C11 5.29 11 9.58 11 14 C9.68 14 8.36 14 7 14 C4.75 11 4.75 11 3 8 C2.67 10.31 2.34 12.62 2 15 C1.01 14.67 0.02 14.34 -1 14 C-1.02685938 11.85423363 -1.04633088 9.70837355 -1.0625 7.5625 C-1.07410156 6.36753906 -1.08570313 5.17257813 -1.09765625 3.94140625 C-1 1 -1 1 0 0 Z " fill="#B8B8B8" transform="translate(261,144)"/>
<path d="M0 0 C2 1 2 1 2.8515625 3.1875 C5.91237051 14.31771096 5.47769226 21.30551179 1 32 C0.67 32 0.34 32 0 32 C0 21.44 0 10.88 0 0 Z " fill="#B03335" transform="translate(79,100)"/>
<path d="M0 0 C2 1.625 2 1.625 3 4 C2.87890756 7.45113452 2.63213135 9.96862779 0.8125 12.9375 C-1.92243127 14.54073557 -3.8903393 14.38077478 -7 14 C-9.80803082 12.55803823 -10.75137334 11.61327909 -11.9375 8.6875 C-12.0210371 5.09540453 -10.85920856 3.02982135 -9 0 C-5.8168485 -1.59157575 -3.38676935 -0.77242108 0 0 Z M-7 2 C-9.31543207 4.76988076 -9.31543207 4.76988076 -8.6875 7.625 C-8.2258486 9.93501965 -8.2258486 9.93501965 -7 11 C-4.54190002 11.2500773 -4.54190002 11.2500773 -2 11 C0.2491908 9.17296773 0.2491908 9.17296773 0.25 6.5 C0.2491908 3.82703227 0.2491908 3.82703227 -2 2 C-4.5 1.58333333 -4.5 1.58333333 -7 2 Z " fill="#B2B2B2" transform="translate(300,145)"/>
<path d="M0 0 C2.58094937 2.82291337 3.01389559 4.30522028 2.9375 8.125 C2 11 2 11 0.375 12.9375 C-3.11319754 14.49800943 -5.36432898 13.99154664 -9 13 C-11 11.375 -11 11.375 -12 9 C-11.93439072 5.260271 -11.76345433 2.9396361 -9.375 0 C-5.85025855 -1.48410166 -3.63189024 -1.05654989 0 0 Z M-9 4 C-9.33333333 6.5 -9.33333333 6.5 -9 9 C-7.17296773 11.2491908 -7.17296773 11.2491908 -4.5 11.25 C-1.82703227 11.2491908 -1.82703227 11.2491908 0 9 C0.33333333 6.5 0.33333333 6.5 0 4 C-1.82703227 1.7508092 -1.82703227 1.7508092 -4.5 1.75 C-7.17296773 1.7508092 -7.17296773 1.7508092 -9 4 Z " fill="#B5B5B5" transform="translate(358,145)"/>
<path d="M0 0 C4.17799643 2.08899822 4.92391901 3.05544612 7 7 C7.66 4.69 8.32 2.38 9 0 C9.66 0.33 10.32 0.66 11 1 C11 5.62 11 10.24 11 15 C10.01 15 9.02 15 8 15 C4 9.74285714 4 9.74285714 4 7 C3.34 7 2.68 7 2 7 C2 9.64 2 12.28 2 15 C1.34 15 0.68 15 0 15 C0 10.05 0 5.1 0 0 Z " fill="#B5B5B5" transform="translate(275,144)"/>
<path d="M0 0 C2.64752004 2.57784846 4.94432065 4.91648098 7 8 C7.33 5.36 7.66 2.72 8 0 C8.66 0 9.32 0 10 0 C10 4.95 10 9.9 10 15 C5.82200357 12.91100178 5.07608099 11.94455388 3 8 C2.67 10.31 2.34 12.62 2 15 C1.01 15 0.02 15 -1 15 C-1.02685412 12.68756208 -1.04632841 10.3750373 -1.0625 8.0625 C-1.07410156 6.77472656 -1.08570313 5.48695313 -1.09765625 4.16015625 C-1 1 -1 1 0 0 Z " fill="#B4B4B4" transform="translate(364,144)"/>
<path d="M0 0 C0.66 0 1.32 0 2 0 C2.83739781 2.1234016 3.66980283 4.2487728 4.5 6.375 C4.9640625 7.55835938 5.428125 8.74171875 5.90625 9.9609375 C7 13 7 13 7 15 C6.01 15 5.02 15 4 15 C4 14.01 4 13.02 4 12 C0.64566891 12.94933899 -2.69246505 13.89748835 -6 15 C-2.9448457 3.84110309 -2.9448457 3.84110309 0 0 Z M0 5 C-0.33 6.32 -0.66 7.64 -1 9 C-0.01 9 0.98 9 2 9 C1.34 7.68 0.68 6.36 0 5 Z " fill="#B5B5B5" transform="translate(212,144)"/>
<path d="M0 0 C3.52891355 2.35260903 3.84198976 3.58203916 5.1875 7.5 C5.53167969 8.4796875 5.87585938 9.459375 6.23046875 10.46875 C7 13 7 13 7 15 C6.01 14.67 5.02 14.34 4 14 C4 13.34 4 12.68 4 12 C1.02934491 12.34227572 1.02934491 12.34227572 -2 13 C-2.33 13.66 -2.66 14.32 -3 15 C-3.99 15 -4.98 15 -6 15 C-3.10933941 4.44191344 -3.10933941 4.44191344 0 0 Z M0 5 C-0.33 6.32 -0.66 7.64 -1 9 C-0.01 9 0.98 9 2 9 C1.34 7.68 0.68 6.36 0 5 Z " fill="#B4B4B4" transform="translate(324,144)"/>
<path d="M0 0 C1.134375 0.020625 2.26875 0.04125 3.4375 0.0625 C3.4375 1.0525 3.4375 2.0425 3.4375 3.0625 C1.7875 3.0625 0.1375 3.0625 -1.5625 3.0625 C-1.2325 3.7225 -0.9025 4.3825 -0.5625 5.0625 C1.46213255 5.71463292 1.46213255 5.71463292 3.4375 6.0625 C3.4375 6.7225 3.4375 7.3825 3.4375 8.0625 C2.798125 8.165625 2.15875 8.26875 1.5 8.375 C0.4790625 8.7153125 0.4790625 8.7153125 -0.5625 9.0625 C-0.8925 10.0525 -1.2225 11.0425 -1.5625 12.0625 C0.0875 12.0625 1.7375 12.0625 3.4375 12.0625 C3.4375 13.0525 3.4375 14.0425 3.4375 15.0625 C1.10455225 15.10491723 -1.22952567 15.10342937 -3.5625 15.0625 C-4.5625 14.0625 -4.5625 14.0625 -4.6953125 11.15625 C-4.69273437 9.9703125 -4.69015625 8.784375 -4.6875 7.5625 C-4.69007813 6.3765625 -4.69265625 5.190625 -4.6953125 3.96875 C-4.50059203 -0.29219211 -4.38544889 0.0769377 0 0 Z " fill="#B2B2B2" transform="translate(191.5625,143.9375)"/>
<path d="M0 0 C0.66 0 1.32 0 2 0 C2 11.22 2 22.44 2 34 C2.99 34.33 3.98 34.66 5 35 C3.68 36.32 2.36 37.64 1 39 C0 38 0 38 -0.11352539 34.39819336 C-0.11336625 32.79540144 -0.10767063 31.1926044 -0.09765625 29.58984375 C-0.0962413 28.74780899 -0.09482635 27.90577423 -0.09336853 27.03822327 C-0.08775263 24.33794665 -0.07519748 21.63775172 -0.0625 18.9375 C-0.05748705 17.11132932 -0.05292379 15.28515734 -0.04882812 13.45898438 C-0.03777804 8.97262458 -0.02050279 4.48632616 0 0 Z " fill="#EC8789" transform="translate(139,90)"/>
<path d="M0 0 C0.99 0.33 1.98 0.66 3 1 C4.6875 4.5625 4.6875 4.5625 6 8 C6.99 5.69 7.98 3.38 9 1 C9.99 1 10.98 1 12 1 C10.35 5.62 8.7 10.24 7 15 C6.01 15 5.02 15 4 15 C3.32532438 13.25307205 2.66055844 11.50231475 2 9.75 C1.62875 8.77546875 1.2575 7.8009375 0.875 6.796875 C0 4 0 4 0 0 Z " fill="#B5B5B5" transform="translate(305,144)"/>
<path d="M0 0 C2.31 0 4.62 0 7 0 C7.33 0.99 7.66 1.98 8 3 C7.01 3 6.02 3 5 3 C5 6.96 5 10.92 5 15 C4.01 14.67 3.02 14.34 2 14 C2 10.37 2 6.74 2 3 C1.34 3 0.68 3 0 3 C0 2.01 0 1.02 0 0 Z " fill="#B9B9B9" transform="translate(178,144)"/>
<path d="M0 0 C1.98 0 3.96 0 6 0 C6.33 0.99 6.66 1.98 7 3 C6.01 3 5.02 3 4 3 C4 6.96 4 10.92 4 15 C3.01 14.67 2.02 14.34 1 14 C1 10.37 1 6.74 1 3 C0.34 3 -0.32 3 -1 3 C-0.67 2.01 -0.34 1.02 0 0 Z " fill="#B6B6B6" transform="translate(333,144)"/>
<path d="M0 0 C2.31 0 4.62 0 7 0 C7 0.99 7 1.98 7 3 C6.34 3 5.68 3 5 3 C5 6.96 5 10.92 5 15 C4.01 15 3.02 15 2 15 C2 11.04 2 7.08 2 3 C1.34 3 0.68 3 0 3 C0 2.01 0 1.02 0 0 Z " fill="#B6B6B6" transform="translate(235,144)"/>
<path d="M0 0 C1.98 0 3.96 0 6 0 C6.33 0.99 6.66 1.98 7 3 C5.35 3 3.7 3 2 3 C2.33 3.66 2.66 4.32 3 5 C5.02463255 5.65213292 5.02463255 5.65213292 7 6 C7 6.66 7 7.32 7 8 C5.68 8.33 4.36 8.66 3 9 C2.67 10.98 2.34 12.96 2 15 C1.34 15 0.68 15 0 15 C0 10.05 0 5.1 0 0 Z " fill="#B4B4B4" transform="translate(198,144)"/>
<path d="M0 0 C0.66 0.33 1.32 0.66 2 1 C2.05389087 2.95803507 2.09274217 4.91648909 2.125 6.875 C2.14820313 7.96554688 2.17140625 9.05609375 2.1953125 10.1796875 C2 13 2 13 0 15 C-2.625 14.625 -2.625 14.625 -5 14 C-4.67 13.01 -4.34 12.02 -4 11 C-3.01 11.33 -2.02 11.66 -1 12 C-1.01160156 11.21753906 -1.02320313 10.43507812 -1.03515625 9.62890625 C-1.04417969 8.61699219 -1.05320313 7.60507813 -1.0625 6.5625 C-1.07410156 5.55316406 -1.08570313 4.54382813 -1.09765625 3.50390625 C-1 1 -1 1 0 0 Z " fill="#B8B8B8" transform="translate(231,144)"/>
<path d="M0 0 C0.66 0.33 1.32 0.66 2 1 C2 5.62 2 10.24 2 15 C1.01 15 0.02 15 -1 15 C-1.02685412 12.68756208 -1.04632841 10.3750373 -1.0625 8.0625 C-1.07410156 6.77472656 -1.08570313 5.48695313 -1.09765625 4.16015625 C-1 1 -1 1 0 0 Z " fill="#B8B8B8" transform="translate(342,144)"/>
<path d="M0 0 C0.99 0.33 1.98 0.66 3 1 C3 5.29 3 9.58 3 14 C2.01 14.33 1.02 14.66 0 15 C0 10.05 0 5.1 0 0 Z " fill="#BEBEBE" transform="translate(255,144)"/>
<path d="M0 0 C0.66 0.33 1.32 0.66 2 1 C2 5.29 2 9.58 2 14 C1.01 14.33 0.02 14.66 -1 15 C-1.02685412 12.68756208 -1.04632841 10.3750373 -1.0625 8.0625 C-1.07410156 6.77472656 -1.08570313 5.48695313 -1.09765625 4.16015625 C-1 1 -1 1 0 0 Z " fill="#B8B8B8" transform="translate(245,144)"/>
<path d="M0 0 C0.66 0 1.32 0 2 0 C2 4.95 2 9.9 2 15 C-2 13 -2 13 -2.75 10.875 C-2.8325 10.25625 -2.915 9.6375 -3 9 C-2.01 9 -1.02 9 0 9 C0 6.03 0 3.06 0 0 Z " fill="#AEAEAE" transform="translate(372,144)"/>
<path d="M0 0 C1.65 0 3.3 0 5 0 C3.68 0.33 2.36 0.66 1 1 C0.67 2.98 0.34 4.96 0 7 C-4.75481646 6.42365861 -7.97048212 4.44931479 -12 2 C-9.2780754 0.6390377 -7.8168043 1.29633752 -4.875 1.9375 C-3.96492188 2.13214844 -3.05484375 2.32679688 -2.1171875 2.52734375 C-1.41851562 2.68332031 -0.71984375 2.83929688 0 3 C0 2.01 0 1.02 0 0 Z " fill="#D66467" transform="translate(51,145)"/>
<path d="M0 0 C1.134375 0.020625 2.26875 0.04125 3.4375 0.0625 C3.4375 1.0525 3.4375 2.0425 3.4375 3.0625 C1.4575 3.0625 -0.5225 3.0625 -2.5625 3.0625 C-2.8925 6.6925 -3.2225 10.3225 -3.5625 14.0625 C-3.8925 14.0625 -4.2225 14.0625 -4.5625 14.0625 C-4.58935938 11.91673363 -4.60883088 9.77087355 -4.625 7.625 C-4.63660156 6.43003906 -4.64820313 5.23507813 -4.66015625 4.00390625 C-4.51766709 -0.28786723 -4.40551892 0.07728981 0 0 Z " fill="#C1C1C1" transform="translate(191.5625,143.9375)"/>
<path d="M0 0 C1.33333333 0 2.66666667 0 4 0 C4.5304408 2.26860837 5.04905434 4.53998489 5.5625 6.8125 C5.85253906 8.07707031 6.14257812 9.34164062 6.44140625 10.64453125 C7 14 7 14 6 17 C4.99580363 14.5433053 3.99649499 12.08481647 3 9.625 C2.71382812 8.92632812 2.42765625 8.22765625 2.1328125 7.5078125 C0 2.2265625 0 2.2265625 0 0 Z " fill="#E56264" transform="translate(6,102)"/>
<path d="M0 0 C5.28 0 10.56 0 16 0 C16.33 0.66 16.66 1.32 17 2 C16.34 2.66 15.68 3.32 15 4 C15 3.34 15 2.68 15 2 C7.08 2.495 7.08 2.495 -1 3 C-0.67 2.01 -0.34 1.02 0 0 Z " fill="#ED918D" transform="translate(302,89)"/>
<path d="M0 0 C0.33 0 0.66 0 1 0 C0.40140845 6.34507042 0.40140845 6.34507042 -1.1875 8.9375 C-3.80642619 10.47273259 -6.02914805 10.1980568 -9 10 C-8.67 9.01 -8.34 8.02 -8 7 C-7.195625 6.690625 -6.39125 6.38125 -5.5625 6.0625 C-2.86833021 5.2414382 -2.86833021 5.2414382 -1.75 2.9375 C-1.5025 2.298125 -1.255 1.65875 -1 1 C-0.67 0.67 -0.34 0.34 0 0 Z " fill="#B9B9B9" transform="translate(302,149)"/>
<path d="M0 0 C0.33 0 0.66 0 1 0 C1 4.29 1 8.58 1 13 C0.01 12.67 -0.98 12.34 -2 12 C-3.1875 9.4375 -3.1875 9.4375 -4 7 C-2.68 7 -1.36 7 0 7 C0 4.69 0 2.38 0 0 Z " fill="#AEAEAE" transform="translate(270,146)"/>
<path d="M0 0 C0.66 0.33 1.32 0.66 2 1 C-0.97 3.97 -3.94 6.94 -7 10 C-7 6.04435836 -5.59478606 4.89133304 -3 2 C-2.01 1.34 -1.02 0.68 0 0 Z " fill="#E77370" transform="translate(218,93)"/>
<path d="M0 0 C0.33 0 0.66 0 1 0 C1 3.96 1 7.92 1 12 C0.01 11.67 -0.98 11.34 -2 11 C-2 10.01 -2 9.02 -2 8 C-1.34 8 -0.68 8 0 8 C0 5.36 0 2.72 0 0 Z " fill="#A9A9A9" transform="translate(284,146)"/>
</svg>
