<?xml version="1.0" encoding="UTF-8"?>
<svg version="1.1" xmlns="http://www.w3.org/2000/svg" width="2029" height="542">
<path d="M0 0 C2.39621812 0.00315324 4.79119022 -0.02033422 7.18725586 -0.0456543 C19.16733755 -0.0971862 29.83491488 1.31610762 40.59936523 6.94067383 C41.27161133 7.28549805 41.94385742 7.63032227 42.63647461 7.9855957 C63.07548877 18.79711602 78.26793756 36.55725298 85.33569336 58.61352539 C86.61388848 63.11391686 87.54636512 67.61636441 88.2565918 72.23901367 C88.5723794 74.15218272 89.01402954 76.04344178 89.46655273 77.92895508 C90.0933073 82.1089259 90.04758411 84.30325564 88.59936523 88.31567383 C83.59765464 95.02644161 77.26123698 101.24614347 70.59936523 106.31567383 C69.93936523 106.31567383 69.27936523 106.31567383 68.59936523 106.31567383 C68.35193069 106.88875275 68.10449615 107.46183167 67.8495636 108.05227661 C66.40126568 110.6743193 64.72531285 112.4227599 62.59619141 114.5300293 C61.77160934 115.3512326 60.94702728 116.17243591 60.09745789 117.01852417 C59.204767 117.89775543 58.31207611 118.77698669 57.39233398 119.68286133 C55.99021654 121.07703017 54.58810171 122.47120165 53.18613911 123.8655262 C51.22173511 125.81680826 49.25282988 127.76351732 47.28387451 129.71020508 C43.84957151 133.1065623 40.41994639 136.50762594 36.99397278 139.91238403 C35.17146311 141.7226997 33.3462865 143.53033547 31.51811218 145.33493042 C26.44084091 150.35684504 26.44084091 150.35684504 21.72851562 155.71508789 C19.8980062 157.95090791 18.14444469 159.72769724 15.92749023 161.55786133 C10.81000507 165.92814561 6.09508601 170.67382966 1.34936523 175.44067383 C0.46506836 176.32110352 -0.41922852 177.2015332 -1.33032227 178.10864258 C-2.18368164 178.96329102 -3.03704102 179.81793945 -3.91625977 180.69848633 C-5.06529785 181.84921631 -5.06529785 181.84921631 -6.23754883 183.02319336 C-8.43835956 185.3556553 -10.41207042 187.80182833 -12.40063477 190.31567383 C-13.47366622 191.28865573 -14.57652667 192.23028056 -15.71313477 193.12817383 C-19.13316789 195.96233404 -21.91433097 199.13180492 -24.78344727 202.51098633 C-26.78028528 204.7393418 -29.06642563 206.44830652 -31.40063477 208.31567383 C-32.52270369 209.5707287 -33.62502491 210.84356558 -34.71313477 212.12817383 C-37.74432313 215.68106999 -41.00216886 218.70573273 -44.55297852 221.72973633 C-47.96058317 224.65465702 -50.953839 227.76305801 -53.77563477 231.25317383 C-55.60913388 233.50493993 -57.53481915 235.34500203 -59.77563477 237.19067383 C-63.15142583 239.98670947 -65.93459177 243.09674749 -68.77172852 246.42895508 C-70.86284553 248.85104026 -73.10799789 251.08500012 -75.40063477 253.31567383 C-76.08125977 254.07879883 -76.76188477 254.84192383 -77.46313477 255.62817383 C-79.40063477 257.31567383 -79.40063477 257.31567383 -83.40063477 257.31567383 C-83.49430046 233.73180855 -83.56472261 210.14797138 -83.60788345 186.56395721 C-83.62846127 175.61215476 -83.65648998 164.66046825 -83.70239258 153.70874023 C-83.74240723 144.1571995 -83.76810228 134.60574278 -83.77698874 125.05412054 C-83.78217882 120.00204401 -83.79427656 114.95020773 -83.82355499 109.89820862 C-83.85095584 105.13100434 -83.85903057 100.36413644 -83.85306549 95.59686089 C-83.8541548 93.85877586 -83.86196039 92.12067811 -83.87745667 90.38266182 C-84.09888509 64.23805131 -75.47379807 41.24403846 -57.15063477 22.37817383 C-41.35958097 6.80992986 -21.8324008 -0.05999744 0 0 Z " fill="#17B3AC" transform="translate(263.400634765625,-0.315673828125)"/>
<path d="M0 0 C3.00828582 1.31773204 4.73996372 2.60401219 6.75 5.1875 C8.96923148 7.8930618 11.26252828 10.18162443 13.9375 12.4375 C17.39823951 15.3764868 20.35189745 18.52757958 23.26171875 22.0078125 C26.95176075 26.2368494 31.08530239 30.07459188 35.08203125 34.01171875 C36.50477487 35.420678 37.92750427 36.82965198 39.34936523 38.23950195 C40.33199785 39.21196884 41.31640133 40.18264932 42.30249023 41.15161133 C43.7336325 42.55862126 45.15795058 43.97256198 46.58203125 45.38671875 C47.85397339 46.64295044 47.85397339 46.64295044 49.15161133 47.92456055 C51 50 51 50 51 52 C51.66 52 52.32 52 53 52 C53 52.66 53 53.32 53 54 C53.60328125 54.26425781 54.2065625 54.52851563 54.828125 54.80078125 C57.1042287 56.05755074 58.16818433 57.15440162 59.75 59.1875 C61.89960498 61.80347812 64.08847159 64.0189855 66.6875 66.1875 C70.6460588 69.55377443 74.09625846 73.29174424 77.55664062 77.15258789 C81.83257887 81.89500556 86.33999496 86.37966008 90.9362793 90.81103516 C92.32691097 92.17144949 93.66847499 93.58168242 95 95 C95 95.66 95 96.32 95 97 C95.85851562 97.37125 95.85851562 97.37125 96.734375 97.75 C99.35010611 99.19316199 101.14773456 100.88216222 103.25 103 C104.30960938 104.051875 104.30960938 104.051875 105.390625 105.125 C107 107 107 107 107 109 C107.58910156 109.26296875 108.17820312 109.5259375 108.78515625 109.796875 C113.66759035 112.44906142 117.33325509 117.11343967 120.8125 121.375 C122.7292087 124.0316122 122.7292087 124.0316122 125 125 C125 125.66 125 126.32 125 127 C126.485 127.495 126.485 127.495 128 128 C129.35827971 129.64639965 130.69254251 131.31295807 132 133 C132.66 133.33 133.32 133.66 134 134 C134 134.66 134 135.32 134 136 C134.66 136 135.32 136 136 136 C137.41015625 137.43359375 137.41015625 137.43359375 139.0625 139.4375 C142.57070655 143.58961788 146.35450405 147.35807233 150.27734375 151.1171875 C152 153 152 153 152 155 C152.58265625 155.2578125 153.1653125 155.515625 153.765625 155.78125 C156.1802903 157.09834017 157.81740177 158.55088384 159.75 160.5 C160.36359375 161.1084375 160.9771875 161.716875 161.609375 162.34375 C163 164 163 164 163 166 C163.5775 166.226875 164.155 166.45375 164.75 166.6875 C167.78738074 168.45930543 169.18872454 169.95964477 171 173 C173.07217198 191.64954778 163.10363497 214.29537226 151.6875 228.625 C150.14249917 230.43177838 148.58036499 232.22407145 147 234 C145.96746094 235.175625 145.96746094 235.175625 144.9140625 236.375 C133.68071269 248.40178344 116.42844061 258.60702676 99.71801758 259.29052734 C98.19367466 259.31687383 96.66909549 259.33153657 95.14453125 259.3359375 C94.32103683 259.3425943 93.49754242 259.3492511 92.64909363 259.35610962 C90.91541759 259.3661756 89.18170328 259.37092853 87.44799805 259.37060547 C84.8364039 259.37496014 82.22652849 259.41129181 79.61523438 259.44921875 C59.49678082 259.58523758 41.34470974 252.62523279 26.453125 238.6015625 C6.65709272 217.60768113 -1.34148741 195.56405671 -1.24291992 166.98999023 C-1.24399428 165.17735221 -1.24593523 163.36471452 -1.24867249 161.55207825 C-1.25349636 156.65603088 -1.24589824 151.76007544 -1.23571944 146.86403918 C-1.22690864 141.73692102 -1.2286969 136.60980547 -1.2290802 131.48268127 C-1.22814558 122.88419055 -1.21948493 114.28573527 -1.20581055 105.68725586 C-1.1900422 95.73504577 -1.18481409 85.78287433 -1.1855461 75.83065265 C-1.18615528 66.25609006 -1.18106282 56.68154008 -1.17275429 47.10698128 C-1.16921693 43.03002893 -1.16739041 38.95308105 -1.16686058 34.87612724 C-1.16585984 30.08675014 -1.15978548 25.29740578 -1.14969444 20.50803947 C-1.14676213 18.74592794 -1.14554554 16.98381264 -1.14612198 15.22169876 C-1.1466091 12.82720209 -1.14099275 10.43279857 -1.13371277 8.03831482 C-1.13526137 7.33211437 -1.13680997 6.62591392 -1.1384055 5.89831346 C-1.11417979 1.11417979 -1.11417979 1.11417979 0 0 Z " fill="#17B3AC" transform="translate(181,283)"/>
<path d="M0 0 C0.82876144 -0.00175232 1.65752289 -0.00350464 2.51139832 -0.00531006 C5.21725635 -0.00966835 7.9230477 -0.0068142 10.62890625 -0.00341797 C12.51936862 -0.00409223 14.4098309 -0.00506327 16.30029297 -0.00631714 C20.24398634 -0.00778549 24.18765694 -0.00566545 28.13134766 -0.00097656 C33.19682094 0.00475164 38.2622416 0.00141686 43.32771301 -0.00454903 C47.22231447 -0.00815129 51.1169033 -0.00701815 55.01150513 -0.00442123 C56.88070685 -0.00375265 58.74990971 -0.004578 60.61911011 -0.00690079 C63.21876096 -0.00942518 65.81832445 -0.00559122 68.41796875 0 C69.58358589 -0.00303635 69.58358589 -0.00303635 70.77275085 -0.00613403 C76.07713699 0.01512527 76.07713699 0.01512527 77.19140625 1.12939453 C77.28846759 3.38230473 77.31327263 5.63832632 77.31166077 7.89332581 C77.3129424 8.96653994 77.3129424 8.96653994 77.31424993 10.06143516 C77.31590683 12.47677267 77.31037996 14.89204186 77.30493164 17.30737305 C77.30464979 19.03163654 77.30480746 20.75590015 77.30537415 22.48016357 C77.3056622 27.176246 77.29976427 31.87230312 77.29280019 36.56837964 C77.28656789 41.47046612 77.28596295 46.37255312 77.28477478 51.27464294 C77.2816611 60.56422349 77.27344721 69.85379233 77.26342529 79.14336771 C77.2522653 89.71634413 77.24675399 100.2893211 77.24172986 110.86230195 C77.23126463 132.61800602 77.21366448 154.37369954 77.19140625 176.12939453 C65.39396304 176.24604376 53.59666052 176.33448889 41.79875469 176.38845539 C36.3185078 176.41437697 30.83865992 176.44945037 25.35864258 176.5065918 C20.0547229 176.56154109 14.75118321 176.59094558 9.4470005 176.60378075 C7.43910566 176.61290913 5.43122793 176.63072879 3.42349815 176.65804482 C-10.09343254 176.83437305 -21.93567583 175.32035742 -34.80859375 171.12939453 C-36.34710747 170.63050468 -36.34710747 170.63050468 -37.91670227 170.12153625 C-46.54398575 167.14141363 -54.48918271 161.64963432 -60.80859375 155.12939453 C-61.83984375 154.32501953 -62.87109375 153.52064453 -63.93359375 152.69189453 C-72.71544749 145.08969278 -78.3414548 135.72752488 -83.30859375 125.37939453 C-83.72987549 124.50468506 -84.15115723 123.62997559 -84.58520508 122.72875977 C-89.46000162 112.16353925 -90.20689039 102.4664669 -90.23413086 90.94848633 C-90.24594959 88.59559493 -90.29517095 86.2454008 -90.34570312 83.89306641 C-90.59380212 60.76310857 -80.34695216 40.86466276 -64.80859375 24.12939453 C-61.98922776 21.43092759 -59.07098721 19.26130671 -55.80859375 17.12939453 C-54.72578125 16.38044922 -53.64296875 15.63150391 -52.52734375 14.85986328 C-36.70659558 4.09644248 -19.03362121 -0.05063641 0 0 Z " fill="#16B2AC" transform="translate(89.80859375,182.87060546875)"/>
<path d="M0 0 C1.0196434 -0.06117508 2.0392868 -0.12235016 3.08982849 -0.18537903 C7.8242853 -0.39534024 12.55820799 -0.55050752 17.29589844 -0.66601562 C19.772992 -0.74372142 22.24923284 -0.85906133 24.72265625 -1.01464844 C46.32062244 -2.3506201 46.32062244 -2.3506201 54.82885742 4.60522461 C58.95993495 8.51882235 62.58818618 12.76115396 66.13845825 17.20082092 C68.64975855 20.15470755 71.42736151 22.61727101 74.40098572 25.09393311 C76.79333061 27.09349099 78.94452515 29.29490235 81.11743164 31.52856445 C83.11381759 33.55298185 85.11589187 35.57174451 87.11743164 37.59106445 C87.62532227 38.10733398 88.13321289 38.62360352 88.65649414 39.15551758 C91.66206995 42.1803599 94.77049578 44.87671649 98.11743164 47.52856445 C98.71555664 48.29168945 99.31368164 49.05481445 99.92993164 49.84106445 C101.81743194 52.15999339 103.5124544 53.72446243 105.80493164 55.59106445 C122.43904223 69.90197524 129.73841976 91.21431899 131.34008789 112.4855957 C131.75862291 125.78773044 128.86426133 138.58212456 123.11743164 150.52856445 C122.79516602 151.33036133 122.47290039 152.1321582 122.14086914 152.95825195 C115.27539222 168.94275929 98.91188477 183.80959241 83.11743164 190.52856445 C65.17833131 196.83959736 46.57479697 199.39934089 28.11743164 193.52856445 C27.48740234 193.33520508 26.85737305 193.1418457 26.20825195 192.94262695 C15.98537713 189.74087592 8.3490982 185.48888158 0.11743164 178.52856445 C-0.55416992 177.99489258 -1.22577148 177.4612207 -1.91772461 176.91137695 C-5.7038036 173.88609398 -5.7038036 173.88609398 -6.88256836 171.52856445 C-6.98139698 169.31600724 -7.0132923 167.10038141 -7.01628113 164.88562012 C-7.01854668 164.19520205 -7.02081224 163.50478398 -7.02314645 162.79344416 C-7.02950103 160.46880602 -7.02865616 158.14422596 -7.02783203 155.81958008 C-7.03082258 154.15752588 -7.03422486 152.49547238 -7.03800964 150.8334198 C-7.04686353 146.31081721 -7.04918831 141.78823351 -7.04982543 137.26562309 C-7.05077327 133.49546625 -7.05445003 129.72531385 -7.05799752 125.95515871 C-7.06614702 117.06442319 -7.06858127 108.17369781 -7.06787109 99.28295898 C-7.06726985 90.09777051 -7.07782976 80.91264068 -7.09361476 71.72746706 C-7.10666845 63.85229861 -7.11205592 55.97714939 -7.11141568 48.1019702 C-7.1111601 43.39362752 -7.11404464 38.68533695 -7.12459373 33.977005 C-7.13423854 29.55131606 -7.13437894 25.12572945 -7.1270771 20.700037 C-7.1260268 19.072191 -7.12842034 17.44433875 -7.13443756 15.81650352 C-7.14209784 13.60138294 -7.13755284 11.38662105 -7.12980652 9.17150879 C-7.13035129 7.9296859 -7.13089605 6.68786301 -7.13145733 5.40840912 C-6.70265501 0.4468229 -4.42940897 0.26089552 0 0 Z " fill="#D0D905" transform="translate(365.882568359375,278.471435546875)"/>
<path d="M0 0 C1.59569102 1.5407519 1.59569102 1.5407519 3.83203125 3.11328125 C7.30577524 6.08861849 9.86947552 9.45142074 12.58984375 13.109375 C13.10611328 13.77904297 13.62238281 14.44871094 14.15429688 15.13867188 C25.97408819 30.90341264 31.01600047 52.41222457 29.0546875 71.87109375 C24.76190188 100.77585026 9.09178001 120.56536578 -12.90625 139 C-14.52427678 140.46873254 -15.81924611 142.0121051 -17.16015625 143.734375 C-19.5959803 146.56519755 -21.08308071 147.13933291 -24.47265625 148.421875 C-25.15159065 149.74900359 -25.816511 151.08333265 -26.47265625 152.421875 C-27.99731445 154.18945313 -27.99731445 154.18945313 -29.7734375 155.953125 C-30.42119141 156.59894531 -31.06894531 157.24476563 -31.73632812 157.91015625 C-32.41244141 158.57402344 -33.08855469 159.23789063 -33.78515625 159.921875 C-34.44966797 160.58574219 -35.11417969 161.24960938 -35.79882812 161.93359375 C-39.21734454 165.32167827 -42.68886663 168.44008426 -46.47265625 171.421875 C-47.82002598 173.07721495 -49.15599961 174.74200273 -50.47265625 176.421875 C-53.0373274 177.70421058 -54.86134347 177.54891353 -57.73266602 177.55126953 C-58.83042862 177.55442169 -59.92819122 177.55757385 -61.05921936 177.56082153 C-62.84361671 177.55778519 -62.84361671 177.55778519 -64.6640625 177.5546875 C-65.8796434 177.55564423 -67.0952243 177.55660095 -68.34764099 177.55758667 C-70.92080741 177.55826812 -73.49397554 177.55641628 -76.06713867 177.55224609 C-80.02201161 177.54689279 -83.97677122 177.55219468 -87.93164062 177.55859375 C-90.4257815 177.55793305 -92.91992231 177.55665207 -95.4140625 177.5546875 C-97.2014962 177.55772385 -97.2014962 177.55772385 -99.02503967 177.56082153 C-100.66695534 177.55609329 -100.66695534 177.55609329 -102.34204102 177.55126953 C-103.79526512 177.55007614 -103.79526512 177.55007614 -105.27784729 177.54885864 C-107.47265625 177.421875 -107.47265625 177.421875 -108.47265625 176.421875 C-108.58499573 174.26330459 -108.62571541 172.10100434 -108.64001465 169.93955994 C-108.64870473 168.91156457 -108.64870473 168.91156457 -108.65757036 167.86280161 C-108.67571574 165.54908498 -108.68652665 163.23539292 -108.69726562 160.92163086 C-108.70843503 159.26945774 -108.71994816 157.61728691 -108.73178101 155.96511841 C-108.7684192 150.52235085 -108.7935732 145.07955972 -108.81640625 139.63671875 C-108.82232505 138.24845096 -108.82232505 138.24845096 -108.82836342 136.83213735 C-108.86479443 128.10466107 -108.89624489 119.37717681 -108.91747284 110.64964962 C-108.94503514 99.48187262 -108.99576069 88.3147317 -109.07794714 77.1472196 C-109.13375462 69.2983134 -109.16271152 61.44957965 -109.17194605 53.60048205 C-109.17820275 48.9117546 -109.19631573 44.22377194 -109.24333191 39.53526115 C-109.28705701 35.11994621 -109.2974692 30.70578172 -109.2827034 26.29028702 C-109.28303162 24.67297723 -109.29527482 23.05561744 -109.32055283 21.43850517 C-109.52369515 7.7139643 -109.52369515 7.7139643 -105.14562988 2.57325745 C-103.32483673 0.87128544 -103.32483673 0.87128544 -101.47265625 -0.578125 C-100.84386314 -1.08442979 -100.21507004 -1.59073458 -99.5672226 -2.11238194 C-97.83706819 -3.4506991 -96.06352873 -4.6473292 -94.22265625 -5.828125 C-93.56861816 -6.25359619 -92.91458008 -6.67906738 -92.24072266 -7.11743164 C-86.89052637 -10.50108699 -81.60525981 -12.93577533 -75.47265625 -14.578125 C-74.42335938 -14.86171875 -73.3740625 -15.1453125 -72.29296875 -15.4375 C-47.79562942 -21.54742463 -19.02802015 -17.92112701 0 0 Z " fill="#D1DB03" transform="translate(467.47265625,86.578125)"/>
<path d="M0 0 C19.2795303 -0.02332767 38.55905774 -0.04097853 57.83859921 -0.05181217 C66.78978382 -0.05697541 75.74095968 -0.06401863 84.69213867 -0.07543945 C92.49110388 -0.08538545 100.29006276 -0.09185322 108.08903414 -0.09408849 C112.22112186 -0.09539575 116.35319144 -0.09848251 120.48527336 -0.10573006 C124.37001526 -0.11248894 128.25473146 -0.11461723 132.13947868 -0.11310768 C133.56939839 -0.11338407 134.99931891 -0.11538998 136.42923355 -0.11920547 C138.37318051 -0.12414059 140.31714109 -0.12239805 142.26109314 -0.12025452 C143.35157424 -0.12117631 144.44205534 -0.1220981 145.56558132 -0.12304783 C148 0 148 0 149 1 C149.09666937 2.96161604 149.12187097 4.92676645 149.12025452 6.89076233 C149.12231651 8.81125145 149.12231651 8.81125145 149.12442017 10.77053833 C149.12088055 12.20257591 149.11724573 13.63461326 149.11352539 15.06665039 C149.11324353 16.56431578 149.11340124 18.0619813 149.1139679 19.55964661 C149.11425591 23.63798172 149.10835864 27.71628767 149.10139394 31.79461598 C149.09516095 36.05207628 149.09455665 40.30953718 149.09336853 44.56700134 C149.09025505 52.63473187 149.08204144 60.70244891 149.07201904 68.77017349 C149.06085842 77.95260779 149.05534758 87.13504272 149.05032361 96.31748211 C149.03985884 115.2116624 149.02225907 134.10583012 149 153 C145.87607104 152.30053552 144.25693416 151.6342764 141.984375 149.34765625 C141.45585937 148.81849609 140.92734375 148.28933594 140.3828125 147.74414062 C139.84398437 147.18919922 139.30515625 146.63425781 138.75 146.0625 C138.19570313 145.51142578 137.64140625 144.96035156 137.0703125 144.39257812 C133 140.26712592 133 140.26712592 133 138 C132.443125 137.773125 131.88625 137.54625 131.3125 137.3125 C127.18072514 134.96743859 124.28648696 131.38876052 121.3125 127.75 C119.2957678 124.98257806 119.2957678 124.98257806 117 124 C117 123.34 117 122.68 117 122 C115.515 121.505 115.515 121.505 114 121 C112.60546875 119.546875 112.60546875 119.546875 111.1875 117.75 C109.22419377 115.36598529 107.46731165 113.557982 105.0625 111.5625 C102.67162026 109.56196797 100.9060108 107.80706485 98.9296875 105.45703125 C93.76612688 99.48171403 88.06077463 94.05036154 82.41210938 88.5390625 C81.58646484 87.724375 80.76082031 86.9096875 79.91015625 86.0703125 C79.15871338 85.33570801 78.40727051 84.60110352 77.63305664 83.84423828 C76 82 76 82 76 80 C75.40445313 79.74347656 74.80890625 79.48695313 74.1953125 79.22265625 C71.80303629 77.89030313 70.57271801 76.56631395 68.875 74.4375 C66.79096366 71.78974334 66.79096366 71.78974334 64 70 C64 69.34 64 68.68 64 68 C63.01 67.67 62.02 67.34 61 67 C61 66.34 61 65.68 61 65 C60.40058594 64.73832031 59.80117188 64.47664063 59.18359375 64.20703125 C56.86938236 62.92779812 55.70340555 61.73749558 54.0625 59.6875 C51.5612717 56.58709166 48.82464102 53.80161629 46 51 C44.82734039 49.83289786 43.65482482 48.66565099 42.48242188 47.49829102 C41.83825317 46.85735001 41.19408447 46.216409 40.53039551 45.55604553 C37.61787805 42.65695766 34.70804916 39.75517746 31.79833984 36.85327148 C30.2670082 35.32698246 28.73478215 33.80159026 27.20166016 32.27709961 C24.97580118 30.06341815 22.75323016 27.84648021 20.53125 25.62890625 C19.85090698 24.95372452 19.17056396 24.27854279 18.46960449 23.582901 C15.57632456 20.68996032 12.76889425 17.7981653 10.17382812 14.63256836 C8.24096636 12.29181719 6.41108629 10.78598985 4 9 C4 8.34 4 7.68 4 7 C3.01 6.67 2.02 6.34 1 6 C0.67 4.02 0.34 2.04 0 0 Z " fill="#D1DB03" transform="translate(198,279)"/>
<path d="M0 0 C0.99 0 1.98 0 3 0 C3 50.49 3 100.98 3 153 C-45.84 153 -94.68 153 -145 153 C-145.33 152.01 -145.66 151.02 -146 150 C-144.671875 148.0625 -144.671875 148.0625 -142.75 146 C-142.12609375 145.319375 -141.5021875 144.63875 -140.859375 143.9375 C-140.24578125 143.298125 -139.6321875 142.65875 -139 142 C-138.46890625 141.4225 -137.9378125 140.845 -137.390625 140.25 C-136 139 -136 139 -134 139 C-133.64204346 138.15199829 -133.64204346 138.15199829 -133.27685547 137.28686523 C-131.72388498 134.50547431 -129.84681909 132.63886398 -127.5703125 130.41015625 C-126.69246094 129.54326172 -125.81460938 128.67636719 -124.91015625 127.78320312 C-123.99105469 126.88537109 -123.07195312 125.98753906 -122.125 125.0625 C-120.31279726 123.28490085 -118.50282335 121.50502603 -116.6953125 119.72265625 C-115.89109863 118.93640869 -115.08688477 118.15016113 -114.25830078 117.34008789 C-111.94565564 115.01657944 -111.94565564 115.01657944 -109.88232422 112.34936523 C-108.01181541 110.01474704 -105.9670342 108.31152106 -103.640625 106.44921875 C-101.10553074 104.20988549 -98.98199002 101.64764281 -96.80859375 99.0625 C-94.6436449 96.59361664 -92.3297975 94.31426271 -90 92 C-89.16718506 91.17242187 -88.33437012 90.34484375 -87.47631836 89.4921875 C-86.60628174 88.62851563 -85.73624512 87.76484375 -84.83984375 86.875 C-83.37387908 85.41640529 -81.90839272 83.9573319 -80.44311523 82.49804688 C-79.43847165 81.49845339 -78.43293541 80.49975629 -77.42651367 79.50195312 C-75.957721 78.0453625 -74.49224719 76.58550075 -73.02734375 75.125 C-72.15843506 74.26132813 -71.28952637 73.39765625 -70.39428711 72.5078125 C-67.96654703 70.03851041 -67.96654703 70.03851041 -65.86157227 67.32421875 C-63.99973285 64.99966645 -61.95683346 63.30335532 -59.640625 61.44921875 C-57.10553074 59.20988549 -54.98199002 56.64764281 -52.80859375 54.0625 C-50.64377347 51.59376327 -48.32871142 49.3150613 -46 47 C-45.17242187 46.17242187 -44.34484375 45.34484375 -43.4921875 44.4921875 C-24 25 -24 25 -21.37695312 22.390625 C-19.49457461 20.49741933 -17.65161722 18.58851141 -15.84375 16.625 C-15.29589844 16.03203125 -14.74804688 15.4390625 -14.18359375 14.828125 C-13.62800781 14.22484375 -13.07242188 13.6215625 -12.5 13 C-8.74094654 8.91824357 -4.95259729 4.89531327 -1 1 C-0.67 0.67 -0.34 0.34 0 0 Z " fill="#D2DC03" transform="translate(344,111)"/>
<path d="M0 0 C13.53 0 27.06 0 41 0 C43.33805155 6.75018109 45.67578612 13.50046209 48.01106262 20.25160217 C49.09960862 23.39828508 50.18874542 26.54476009 51.27880859 29.69091797 C55.75491569 42.61094435 60.21197701 55.53705465 64.5625 68.5 C64.89709229 69.49080566 65.23168457 70.48161133 65.57641602 71.50244141 C65.88248779 72.41944824 66.18855957 73.33645508 66.50390625 74.28125 C66.77017822 75.07595703 67.0364502 75.87066406 67.31079102 76.68945312 C68.03231628 79.10833909 68.54260038 81.51877877 69 84 C71.78305615 76.85154809 74.15644806 69.57390631 76.5567627 62.29089355 C83.43800035 41.43155144 90.70473558 20.71855096 98 0 C111.2 0 124.4 0 138 0 C138 39.93 138 79.86 138 121 C128.76 121 119.52 121 110 121 C110 92.29 110 63.58 110 34 C107.091875 42.600625 104.18375 51.20125 101.1875 60.0625 C94.28715775 80.43474227 87.30711296 100.76997041 80 121 C72.08 121 64.16 121 56 121 C54.74445313 117.42671875 53.48890625 113.8534375 52.1953125 110.171875 C50.50553572 105.36446821 48.81527443 100.55723184 47.125 95.75 C46.69092834 94.5152594 46.25685669 93.2805188 45.80963135 92.00836182 C40.47837309 76.84576076 35.1436611 61.68490424 29.68017578 46.56933594 C29.32938965 45.59512695 28.97860352 44.62091797 28.6171875 43.6171875 C28.32440918 42.80878418 28.03163086 42.00038086 27.72998047 41.16748047 C27.04849229 39.1439848 26.51785535 37.07142142 26 35 C25.67 63.38 25.34 91.76 25 121 C16.75 121 8.5 121 0 121 C0 81.07 0 41.14 0 0 Z M24 25 C24 26.65 24 28.3 24 30 C24.33 30 24.66 30 25 30 C25 28.35 25 26.7 25 25 C24.67 25 24.34 25 24 25 Z " fill="#73D48B" transform="translate(1442,325)"/>
<path d="M0 0 C1.78186906 1.59888984 3.38147254 3.22973559 5 5 C8.16504031 3.5671777 10.59071318 1.78654383 13.25 -0.4375 C21.72357541 -7.13009405 31.37780999 -8.83311294 42 -8 C52.32531914 -6.23143148 59.86700205 -2.80845722 66.31640625 5.74609375 C72.9889641 15.64538107 73.45563103 25.6886133 73.3984375 37.3515625 C73.40046349 38.8202631 73.40337927 40.28896272 73.40713501 41.75765991 C73.41153097 44.8186817 73.40521442 47.87943892 73.39111328 50.94042969 C73.37399227 54.8451414 73.38389792 58.74923562 73.40183067 62.65392494 C73.41271695 65.68072083 73.40920063 68.70737238 73.4014473 71.73417282 C73.39946022 73.17334442 73.40185153 74.61252955 73.40888596 76.05168533 C73.46285466 90.18726619 73.46285466 90.18726619 70 97 C66.01182844 100.88846728 62.685499 102.15203613 57.1875 102.3125 C52.31321821 102.23445473 49.62991778 101.45706455 46 98 C40.53721664 89.90243367 40.85572784 81.0871412 40.7890625 71.66015625 C40.76100262 69.44074772 40.73233822 67.22134677 40.703125 65.00195312 C40.66186385 61.52840317 40.62494316 58.05499609 40.59863281 54.58129883 C40.57094271 51.21146076 40.52508603 47.84225031 40.4765625 44.47265625 C40.47330963 43.44221695 40.47005676 42.41177765 40.46670532 41.35011292 C40.35679791 34.8628027 40.00687133 28.51285488 35.58389282 23.34559631 C32.43926753 20.67407957 28.98091533 20.72275721 24.99609375 20.78125 C21.20143844 21.19710264 18.93462259 23.06537741 16.3125 25.6875 C12.46086311 32.47371738 12.70689968 40.0480162 12.69140625 47.62109375 C12.6662521 49.87825786 12.64085399 52.13541925 12.61523438 54.39257812 C12.58650688 57.91869436 12.56246135 61.44476376 12.54370117 64.97094727 C12.52195711 68.39623471 12.48252108 71.82099185 12.44140625 75.24609375 C12.44129044 76.29010849 12.44117462 77.33412323 12.4410553 78.40977478 C12.33739394 86.13890519 11.56628114 92.92046263 6.5 99 C1.79713678 102.76229058 -3.22092698 102.58844664 -9 102 C-11.97048775 101.22094755 -13.80161371 100.13357472 -16 98 C-19.959274 91.05350366 -20.57821032 84.27956534 -20.5390625 76.4375 C-20.55085541 75.36556396 -20.56264832 74.29362793 -20.57479858 73.18920898 C-20.60982129 69.79265578 -20.6192019 66.39671835 -20.625 63 C-20.64142704 59.60346762 -20.66364357 56.20720409 -20.69662476 52.81079102 C-20.71601258 50.70718284 -20.72561645 48.60345235 -20.72354126 46.49975586 C-20.80049226 34.00842009 -20.80049226 34.00842009 -26 23 C-29.51067126 20.26947791 -33.74887412 20.5075916 -38 21 C-41.3272933 21.95979615 -43.23549424 22.79872124 -45.12460327 25.7671051 C-48.10786894 32.08120356 -48.5734459 37.54201125 -48.5390625 44.46484375 C-48.55085541 45.53819473 -48.56264832 46.61154572 -48.57479858 47.71742249 C-48.60987009 51.12426439 -48.61920618 54.53049288 -48.625 57.9375 C-48.64142333 61.34075118 -48.66364211 64.74373376 -48.69662476 68.14686584 C-48.71602095 70.2560385 -48.7256155 72.3653333 -48.72354126 74.47459412 C-48.78583565 83.16880856 -49.01674366 92.18573584 -55 99 C-59.79187964 102.34317184 -64.34050287 102.73156875 -70 102 C-75.21674909 100.22827389 -77.54524993 97.90950014 -80 93 C-82.3953383 84.22541091 -82.29455456 75.27182651 -82.265625 66.25390625 C-82.26697644 64.75137774 -82.26892094 63.24884966 -82.27142334 61.74632263 C-82.274353 58.61396069 -82.27014775 55.48171369 -82.26074219 52.34936523 C-82.24935887 48.36784725 -82.25591379 44.38659936 -82.26788712 40.40509129 C-82.27517295 37.30696135 -82.27278706 34.20889363 -82.26763153 31.11076164 C-82.26631303 29.64419458 -82.26787834 28.17762156 -82.27259064 26.71106148 C-82.33385117 2.29303208 -82.33385117 2.29303208 -75.4375 -4.79296875 C-71.73911323 -7.89840764 -67.60623326 -7.32385602 -62.984375 -7.28515625 C-57.17814949 -6.73037292 -53.80835817 -3.1013088 -50 1 C-49.40832031 0.59007812 -48.81664062 0.18015625 -48.20703125 -0.2421875 C-47.41683594 -0.78101563 -46.62664063 -1.31984375 -45.8125 -1.875 C-44.64654297 -2.67550781 -44.64654297 -2.67550781 -43.45703125 -3.4921875 C-30.44232535 -11.47895455 -11.77761527 -9.3296121 0 0 Z " fill="#5FC0CF" transform="translate(936,146)"/>
<path d="M0 0 C1.03769531 -0.02578125 2.07539062 -0.0515625 3.14453125 -0.078125 C7.60601495 0.40295925 10.16567117 2.28656139 13.375 5.3125 C18.91544653 14.29184437 17.62033101 26.66802391 17.8125 36.875 C17.85075702 38.56382052 17.889813 40.25262314 17.9296875 41.94140625 C18.02483889 46.04412246 18.10917039 50.14692957 18.1875 54.25 C22.1180771 50.41272831 25.86476213 46.58755325 29.25 42.25 C33.58825697 36.85128021 38.25954633 31.83884308 43.02246094 26.81420898 C46.52657275 23.09595701 49.82806952 19.31768718 53 15.3125 C57.67392853 9.47008934 63.09728565 3.1308366 70.1875 0.25 C75.80901717 -0.20334816 79.34850802 0.06066438 84.1875 3.25 C88.23414991 7.62475666 89.59829313 11.06896335 89.4453125 17.08984375 C87.99820084 29.21488543 73.97377313 39.53601394 65.75976562 47.65917969 C62.23782583 51.15357121 58.9004726 54.74406852 55.6875 58.52734375 C53.32279634 61.24305811 50.76416982 63.73617579 48.1875 66.25 C49.53922847 70.33379341 51.25686242 72.62683519 54.375 75.5625 C57.92290333 78.9239986 61.14304226 82.4518449 64.33813477 86.14233398 C67.32803506 89.54983356 70.44788789 92.83185611 73.5625 96.125 C74.88207619 97.52941654 76.20108843 98.93436317 77.51953125 100.33984375 C78.14939941 101.01128418 78.77926758 101.68272461 79.42822266 102.37451172 C80.00878418 102.99342285 80.5893457 103.61233398 81.1875 104.25 C81.67138184 104.76449707 82.15526367 105.27899414 82.65380859 105.80908203 C97.55746859 121.71268605 97.55746859 121.71268605 97.3984375 132.78125 C96.99668328 137.48326239 94.72746508 139.64253929 91.6875 143.0625 C88.0104021 145.9839036 84.27685719 145.83259286 79.734375 145.60546875 C76.51175107 145.15568535 74.69522457 144.32782893 72.1875 142.25 C71.23875 141.528125 70.29 140.80625 69.3125 140.0625 C66.33388174 137.51262225 63.83738436 134.65860335 61.296875 131.6796875 C58.69744658 128.68553106 56.00986056 125.78079105 53.3125 122.875 C48.98954561 118.21102368 44.70932708 113.51305119 40.46484375 108.77734375 C37.05540305 104.99362482 33.60552399 101.2473594 30.15625 97.5 C26.13337567 93.11354227 22.16468106 88.67784074 18.1875 84.25 C18.16768066 85.50022949 18.14786133 86.75045898 18.12744141 88.03857422 C18.05085584 92.71666194 17.96222376 97.39445989 17.87011719 102.07226562 C17.83204475 104.08945965 17.79715568 106.10671655 17.765625 108.12402344 C17.71949855 111.03863872 17.66158704 113.95282913 17.6015625 116.8671875 C17.59001129 117.75614716 17.57846008 118.64510681 17.56655884 119.56100464 C17.36212023 128.4109271 16.91319885 136.2438056 10.72265625 142.97265625 C6.88282461 146.16763066 1.86408851 145.57688733 -2.859375 145.53125 C-6.83240277 145.1528664 -8.9304532 143.98424953 -11.8125 141.25 C-15.1008374 136.7143622 -15.93393109 132.82347012 -15.95294189 127.30511475 C-15.95865204 126.30989304 -15.96436218 125.31467133 -15.97024536 124.28929138 C-15.97136322 123.20350296 -15.97248108 122.11771454 -15.97363281 120.99902344 C-15.97859772 119.85061478 -15.98356262 118.70220612 -15.98867798 117.51899719 C-16.00329542 113.71578372 -16.01010111 109.91261196 -16.015625 106.109375 C-16.021377 103.46624755 -16.02713473 100.82312011 -16.03289795 98.17999268 C-16.04246514 93.34381168 -16.04836441 88.50763967 -16.0513947 83.67145038 C-16.05587161 76.56666301 -16.07340512 69.4620684 -16.1023953 62.35733962 C-16.12667181 56.19252272 -16.13434172 50.02778501 -16.13607025 43.86292267 C-16.13909479 41.24590252 -16.14711659 38.62888314 -16.16025543 36.01189423 C-16.17733981 32.34729988 -16.17542941 28.68317288 -16.16894531 25.01855469 C-16.1781601 23.94086319 -16.18737488 22.86317169 -16.1968689 21.75282288 C-16.1625202 15.54505697 -15.50916617 10.8755662 -12.8125 5.25 C-8.52930315 1.17573958 -5.827127 0.08622136 0 0 Z " fill="#5FC0CF" transform="translate(635.8125,102.75)"/>
<path d="M0 0 C5.59527026 3.90367692 7.07327626 8.5151053 8.27703857 14.91082764 C9.05200618 20.50730376 9.04896089 26.11595769 9.1015625 31.7578125 C9.12092865 33.05322968 9.1402948 34.34864685 9.1602478 35.68331909 C9.21111475 39.09274424 9.25098034 42.50220841 9.28839111 45.9118042 C9.32871931 49.40483895 9.37967863 52.89771781 9.4296875 56.390625 C9.52590698 63.2186355 9.61048061 70.04674661 9.6875 76.875 C10.95601791 75.62009563 12.22255761 74.36319143 13.48828125 73.10546875 C14.54656128 72.05588989 14.54656128 72.05588989 15.6262207 70.98510742 C17.4592438 69.10866319 19.18322954 67.19073092 20.875 65.1875 C24.17937769 61.36657592 27.65100226 57.729865 31.1875 54.125 C31.98837036 53.29222534 31.98837036 53.29222534 32.80541992 52.44262695 C37.89786515 47.30668974 43.2936131 43.36608404 50.703125 42.77734375 C55.41565369 43.00925953 58.71317993 44.95195994 62.0625 48.125 C64.36848872 52.02744244 65.20776689 55.33869892 64.28125 59.85546875 C61.74158302 67.67099154 56.09176415 72.70751418 49.98828125 77.8984375 C47.17290032 80.31708394 44.4286176 82.81058474 41.6875 85.3125 C40.73875 86.17746094 39.79 87.04242188 38.8125 87.93359375 C38.11125 88.57425781 37.41 89.21492188 36.6875 89.875 C39.68229021 94.60171707 43.04661797 98.750328 46.75 102.9375 C47.90801708 104.26261461 49.06556065 105.58814317 50.22265625 106.9140625 C50.80160645 107.57567383 51.38055664 108.23728516 51.97705078 108.91894531 C71.10912883 130.79822155 71.10912883 130.79822155 70.96875 141.58984375 C70.52800167 145.17092389 69.03929501 147.20539485 66.6875 149.875 C63.04950679 152.46823618 60.39675821 153.34902265 55.9375 153.4375 C54.49117187 153.50130859 54.49117187 153.50130859 53.015625 153.56640625 C43.86411129 151.6652115 38.51298789 144.78690576 33.375 137.5 C32.0809786 135.71856879 30.78670416 133.93732135 29.4921875 132.15625 C28.85635742 131.27066406 28.22052734 130.38507813 27.56542969 129.47265625 C24.7687011 125.60406652 21.88385167 121.80380623 19 118 C15.75066897 113.70859516 12.63076089 109.38294525 9.6875 104.875 C9.66768066 105.70112793 9.64786133 106.52725586 9.62744141 107.37841797 C9.54858928 110.49111674 9.4618779 113.60347735 9.37011719 116.71582031 C9.31374001 118.7062213 9.26614607 120.6968649 9.21875 122.6875 C8.5988993 143.14257302 8.5988993 143.14257302 2.6875 149.875 C-2.10437964 153.21817184 -6.65300287 153.60656875 -12.3125 152.875 C-17.52674987 151.10412268 -19.82549935 148.76017984 -22.3125 143.875 C-24.34180403 136.71503907 -24.60027208 129.64542832 -24.57128906 122.25 C-24.57654602 120.57478271 -24.57654602 120.57478271 -24.58190918 118.86572266 C-24.5906567 115.20208377 -24.58490199 111.53864059 -24.578125 107.875 C-24.57947365 105.31249963 -24.58141585 102.7499995 -24.58392334 100.1875 C-24.58686516 94.82809771 -24.58280046 89.46876449 -24.57324219 84.109375 C-24.56236029 77.93702762 -24.56588685 71.76481244 -24.576895 65.59246826 C-24.58710817 59.62413446 -24.58597174 53.65584127 -24.58013153 47.6875 C-24.57880207 45.16145814 -24.58041798 42.63541289 -24.58509064 40.109375 C-24.59019765 36.57282714 -24.58238696 33.03652935 -24.57128906 29.5 C-24.57533752 28.46697754 -24.57938599 27.43395508 -24.58355713 26.36962891 C-24.5333458 17.68593781 -24.28698365 8.67927304 -18.3125 1.875 C-12.55333215 -2.14302408 -6.48648848 -2.20295835 0 0 Z " fill="#5FC0CF" transform="translate(1291.3125,95.125)"/>
<path d="M0 0 C11.52734054 8.41034766 18.74824698 20.92128255 21 35 C21.96116276 48.47203538 21.96116276 48.47203538 19.1875 52.8125 C15.66491725 56.33508275 12.5580835 56.13967272 7.78442383 56.20532227 C5.86277153 56.2352401 5.86277153 56.2352401 3.90229797 56.26576233 C2.50387696 56.2827454 1.10545469 56.29962425 -0.29296875 56.31640625 C-1.7235829 56.33698166 -3.15419105 56.35797829 -4.58479309 56.37937927 C-8.34780006 56.43453933 -12.11086135 56.48397529 -15.8739624 56.53222656 C-19.71485216 56.58248593 -23.55566316 56.63814883 -27.39648438 56.69335938 C-34.93092287 56.80086673 -42.46542691 56.90232811 -50 57 C-49.53923702 58.29293312 -49.07241562 59.58370834 -48.60302734 60.87353516 C-48.21405777 61.9520726 -48.21405777 61.9520726 -47.81723022 63.05239868 C-46.81613498 65.43818222 -45.65695647 66.78437345 -43.625 68.375 C-43.06039063 68.83648437 -42.49578125 69.29796875 -41.9140625 69.7734375 C-35.26803898 74.03231788 -27.62518843 73.95361147 -20 73 C-14.15454177 71.46846554 -8.69225582 69.20236668 -3.18359375 66.7421875 C2.48321148 64.26782674 5.93379696 63.35492799 12 65 C15.0359389 66.58396812 16.49471634 67.82255001 17.8515625 70.984375 C19.22793772 75.79339687 19.26299138 79.53419594 17.1484375 84.09765625 C11.2829501 93.81361668 0.05646318 98.66964304 -10.4375 101.9375 C-26.78842811 105.45382863 -44.26873817 104.36599256 -58.75 95.8125 C-72.00748765 86.71724685 -80.11749059 74.78388851 -83.33984375 59.07421875 C-86.30845644 42.24142565 -82.68544077 25.09296448 -73 11 C-54.73548361 -11.13229633 -23.99943131 -15.87932297 0 0 Z M-46.5 24.3125 C-49.41443207 27.81151293 -49.6001206 30.10042209 -51 35 C-37.8 35 -24.6 35 -11 35 C-12.01519334 28.90883994 -12.96936651 25.55066891 -17.7265625 21.546875 C-27.21608797 14.96847886 -38.42070537 15.60416054 -46.5 24.3125 Z " fill="#5FC0CF" transform="translate(1110,146)"/>
<path d="M0 0 C9.76935757 8.36741049 18.41678847 19.78509288 19.57543945 33.05444336 C19.64186103 35.35802817 19.68317389 37.66046404 19.7109375 39.96484375 C19.75444336 41.16270508 19.75444336 41.16270508 19.79882812 42.38476562 C19.84272008 46.45996495 19.7299929 48.50164045 17.50390625 52.03125 C14.03254244 55.32228322 11.90587217 55.14994498 7.20458984 55.14086914 C5.90339203 55.14079361 4.60219421 55.14071808 3.26156616 55.14064026 C1.83583539 55.13553322 0.410105 55.13031722 -1.015625 55.125 C-2.47008211 55.12313522 -3.92453984 55.1217116 -5.3789978 55.12071228 C-9.20949026 55.1168918 -13.03994487 55.10706551 -16.87042236 55.0960083 C-20.77819303 55.0857841 -24.68596981 55.08121249 -28.59375 55.07617188 C-36.2630381 55.06544283 -43.932295 55.04837203 -51.6015625 55.02734375 C-51.00398548 56.6349579 -50.39499138 58.23833101 -49.78125 59.83984375 C-49.44335449 60.73316406 -49.10545898 61.62648438 -48.75732422 62.546875 C-46.62264815 67.12826682 -43.52498782 69.26553766 -38.8203125 71.12890625 C-27.42282333 74.31024425 -16.90421235 71.32355228 -6.46875 66.61328125 C3.83550337 61.99057109 3.83550337 61.99057109 10.3984375 64.02734375 C13.84634826 66.13984925 16.08679547 68.09241766 17.3984375 72.02734375 C18.15358443 78.28427543 17.09335519 81.77164596 13.359375 86.85546875 C4.8710741 96.25685381 -7.9154433 101.25071893 -20.3815918 102.25024414 C-43.33265924 103.13658531 -43.33265924 103.13658531 -53.6015625 98.02734375 C-54.37886719 97.67671875 -55.15617187 97.32609375 -55.95703125 96.96484375 C-69.55547863 90.22413317 -78.0919635 78.55785557 -82.875 64.4375 C-87.24429817 49.94364533 -86.00604559 32.7150646 -79.6015625 19.02734375 C-71.90666811 4.8998209 -61.10916809 -3.25359304 -46.26171875 -8.85546875 C-30.72060209 -13.09124335 -12.75673465 -9.67289939 0 0 Z M-49.6015625 26.02734375 C-51.20304803 29.09105519 -51.6015625 30.57719167 -51.6015625 34.02734375 C-38.4015625 34.02734375 -25.2015625 34.02734375 -11.6015625 34.02734375 C-14.4747249 25.40785654 -15.51876201 22.61877243 -22.6015625 18.02734375 C-33.6264217 13.72951728 -42.38807171 16.95552985 -49.6015625 26.02734375 Z " fill="#5FC0CF" transform="translate(1451.6015625,146.97265625)"/>
<path d="M0 0 C10.2774066 8.80255218 16.43568677 18.81899118 19.3984375 32.02734375 C19.56971514 34.8548288 19.67470602 37.63637282 19.7109375 40.46484375 C19.75444336 41.59116211 19.75444336 41.59116211 19.79882812 42.74023438 C19.84407519 46.69761219 19.68787282 48.57319885 17.50390625 52 C14.04345434 55.33204924 11.92199816 55.14997611 7.20458984 55.14086914 C5.90339203 55.14079361 4.60219421 55.14071808 3.26156616 55.14064026 C1.83583539 55.13553322 0.410105 55.13031722 -1.015625 55.125 C-2.47008211 55.12313522 -3.92453984 55.1217116 -5.3789978 55.12071228 C-9.20949026 55.1168918 -13.03994487 55.10706551 -16.87042236 55.0960083 C-20.77819303 55.0857841 -24.68596981 55.08121249 -28.59375 55.07617188 C-36.2630381 55.06544283 -43.932295 55.04837203 -51.6015625 55.02734375 C-51.00398548 56.6349579 -50.39499138 58.23833101 -49.78125 59.83984375 C-49.44335449 60.73316406 -49.10545898 61.62648438 -48.75732422 62.546875 C-46.62264815 67.12826682 -43.52498782 69.26553766 -38.8203125 71.12890625 C-27.42282333 74.31024425 -16.90421235 71.32355228 -6.46875 66.61328125 C3.83550337 61.99057109 3.83550337 61.99057109 10.3984375 64.02734375 C13.84634826 66.13984925 16.08679547 68.09241766 17.3984375 72.02734375 C18.15358443 78.28427543 17.09335519 81.77164596 13.359375 86.85546875 C4.8710741 96.25685381 -7.9154433 101.25071893 -20.3815918 102.25024414 C-43.33265924 103.13658531 -43.33265924 103.13658531 -53.6015625 98.02734375 C-54.37886719 97.67671875 -55.15617188 97.32609375 -55.95703125 96.96484375 C-69.55547863 90.22413317 -78.0919635 78.55785557 -82.875 64.4375 C-87.24429817 49.94364533 -86.00604559 32.7150646 -79.6015625 19.02734375 C-71.90666811 4.8998209 -61.10916809 -3.25359304 -46.26171875 -8.85546875 C-30.72060209 -13.09124335 -12.75673465 -9.67289939 0 0 Z M-49.6015625 26.02734375 C-51.20304803 29.09105519 -51.6015625 30.57719167 -51.6015625 34.02734375 C-38.4015625 34.02734375 -25.2015625 34.02734375 -11.6015625 34.02734375 C-14.4747249 25.40785654 -15.51876201 22.61877243 -22.6015625 18.02734375 C-33.6264217 13.72951728 -42.38807171 16.95552985 -49.6015625 26.02734375 Z " fill="#5FC0CF" transform="translate(818.6015625,146.97265625)"/>
<path d="M0 0 C2.51488835 1.83367555 4.79322724 3.8074187 7 6 C7.33 3.69 7.66 1.38 8 -1 C17.24 -1 26.48 -1 36 -1 C36.04538022 9.33656576 36.08199013 19.67306417 36.10362434 30.00970745 C36.11401333 34.81062745 36.12808213 39.61147512 36.15087891 44.41235352 C36.17278298 49.05486056 36.18460525 53.69729851 36.18975449 58.33985329 C36.19341898 60.10145974 36.20057373 61.86306288 36.21146011 63.62463951 C36.31398589 80.91974525 35.72293558 98.04613542 24.0703125 111.96875 C12.76654703 123.05923687 -2.7830863 126.83456702 -18.18457031 127.02734375 C-27.75996561 126.90823621 -38.30579682 126.34710159 -47 122 C-47 114.08 -47 106.16 -47 98 C-39.8125 100.9375 -39.8125 100.9375 -37.57739258 101.85913086 C-27.75133645 105.83068873 -16.00189865 107.0773225 -5.9609375 103.02734375 C0.54313023 99.61983416 3.88733949 95.53454585 6.35546875 88.61328125 C7.33950431 84.62346434 7.26400156 81.09202421 7 77 C6.45472656 77.54269531 5.90945313 78.08539063 5.34765625 78.64453125 C-3.39838254 86.94205523 -10.25115366 88.648509 -22.28515625 88.3359375 C-32.72653513 87.39171186 -40.2111302 82.95403485 -47 75 C-56.30826145 61.02797194 -56.46824393 44.62939559 -53.34008789 28.65698242 C-52.24859255 23.57418897 -50.91470685 19.30176992 -48 15 C-47.50628906 14.25363281 -47.01257812 13.50726563 -46.50390625 12.73828125 C-36.30581996 -1.51077696 -16.33461737 -8.65893309 0 0 Z M-21.546875 23.765625 C-26.95656078 31.84833198 -27.81363655 40.48671111 -27 50 C-25.60567414 56.75790053 -23.16275445 61.86697956 -17.3125 65.8125 C-12.28696654 67.61410634 -7.9187384 68.03568137 -2.8203125 66.2265625 C1.93686177 63.69538676 4.95839939 60.32248784 7.15625 55.421875 C8.32453493 50.68383054 8.46653155 46.11631246 8.5 41.25 C8.50644531 40.33863281 8.51289062 39.42726563 8.51953125 38.48828125 C8.4022597 32.34505631 7.59794335 27.81640677 3.28125 23.13671875 C2.6934375 22.65847656 2.105625 22.18023437 1.5 21.6875 C0.9121875 21.19636719 0.324375 20.70523437 -0.28125 20.19921875 C-7.1132918 15.43231686 -16.32668076 17.80722147 -21.546875 23.765625 Z " fill="#73D48B" transform="translate(1993,360)"/>
<path d="M0 0 C7.95000831 5.47271448 12.92134832 12.59167844 15.19889832 21.99943542 C16.15145827 27.86894444 15.93234247 33.84956851 15.92578125 39.78125 C15.92967553 41.25280883 15.93401169 42.72436655 15.93876648 44.19592285 C15.94619639 47.26883603 15.94596045 50.34163424 15.94067383 53.41455078 C15.93487512 57.33498398 15.95183523 61.25494536 15.9750185 65.1753006 C15.98981033 68.21065988 15.99062032 71.24590683 15.98750877 74.28129578 C15.98801898 75.72605831 15.99319966 77.17082764 16.00332069 78.61555481 C16.09068647 92.82518951 16.09068647 92.82518951 12.625 99.625 C7.81467675 104.31506517 3.61960117 104.97634797 -2.8671875 104.91015625 C-7.39376024 104.3954525 -10.01189105 101.98810895 -13.125 98.875 C-16.89789227 92.08379392 -16.66815505 84.55023519 -16.68359375 77.00390625 C-16.7087479 74.74674214 -16.73414601 72.48958075 -16.75976562 70.23242188 C-16.78849312 66.70630564 -16.81253865 63.18023624 -16.83129883 59.65405273 C-16.85304289 56.22876529 -16.89247892 52.80400815 -16.93359375 49.37890625 C-16.93376747 47.81288414 -16.93376747 47.81288414 -16.9339447 46.21522522 C-17.03153328 38.93888938 -17.8915611 32.35015835 -22 26.1875 C-26.2970113 23.36051888 -30.69501799 22.25254244 -35.8203125 22.96484375 C-39.75752912 24.06284641 -41.96779281 25.19691039 -44.8125 28.1875 C-48.41963975 36.12320744 -48.66510653 44.4426347 -48.68359375 53.0390625 C-48.70873615 55.2031279 -48.73413441 57.36719034 -48.75976562 59.53125 C-48.78853858 62.89940733 -48.81259724 66.26751367 -48.83129883 69.63574219 C-48.85301309 72.91626639 -48.89243153 76.19623295 -48.93359375 79.4765625 C-48.93370956 80.47571686 -48.93382538 81.47487122 -48.9339447 82.50430298 C-49.0381196 89.90917614 -49.91942061 95.73969421 -54.875 101.5625 C-59.53818595 105.40962841 -64.58324158 105.13549153 -70.375 104.625 C-74.55017629 102.90047066 -76.90173503 100.37753995 -79.375 96.625 C-81.10783759 91.60110978 -81.66833528 86.99393524 -81.6496582 81.72119141 C-81.65476913 80.96409378 -81.65988007 80.20699615 -81.66514587 79.42695618 C-81.67895778 76.94340945 -81.67809139 74.46014289 -81.67578125 71.9765625 C-81.67967299 70.23692727 -81.68400864 68.49729299 -81.68876648 66.75765991 C-81.69621078 63.11803096 -81.69595057 59.47849903 -81.69067383 55.83886719 C-81.68488369 51.19324308 -81.70180784 46.54801825 -81.7250185 41.9024601 C-81.73980833 38.31118478 -81.74062039 34.72000445 -81.73750877 31.12870407 C-81.73801942 29.4168252 -81.74320854 27.70494066 -81.75332069 25.99309158 C-81.85847166 5.70321072 -81.85847166 5.70321072 -75.8125 -1.375 C-71.45282752 -4.95216717 -67.95331107 -4.763584 -62.4296875 -4.73046875 C-56.55931579 -4.04734365 -53.39605295 -0.44378058 -49.375 3.625 C-48.55 2.861875 -47.725 2.09875 -46.875 1.3125 C-43.37077695 -1.61875767 -39.71732046 -3.07406189 -35.375 -4.375 C-34.79105469 -4.560625 -34.20710938 -4.74625 -33.60546875 -4.9375 C-22.43735893 -7.12809247 -9.82723969 -5.7903996 0 0 Z " fill="#5FC0CF" transform="translate(1228.375,143.375)"/>
<path d="M0 0 C67.52083333 0 67.52083333 0 79.8125 11.25 C86.95282008 18.93576119 88.9261904 29.0618976 89.03515625 39.3046875 C88.37100169 53.07374543 83.35308256 61.39106734 73.24609375 70.59765625 C65.75522977 76.50009606 55.66318967 79.1479315 46.26171875 79.09765625 C45.29967529 79.09515869 44.33763184 79.09266113 43.34643555 79.09008789 C42.13898682 79.08098389 40.93153809 79.07187988 39.6875 79.0625 C33.9021875 79.0315625 33.9021875 79.0315625 28 79 C28 92.86 28 106.72 28 121 C18.76 121 9.52 121 0 121 C0 81.07 0 41.14 0 0 Z M28 21 C28 33.21 28 45.42 28 58 C43.00455458 58.8428174 43.00455458 58.8428174 54.875 52.625 C59.52123754 46.88553009 59.66138578 41.12826897 59 34 C57.34084574 29.02253721 54.47445543 25.71334254 50 23 C42.41096895 20.15411336 36.65628796 21 28 21 Z " fill="#73D48B" transform="translate(620,325)"/>
<path d="M0 0 C3.43613036 2.88694322 6.54382513 6.10623037 7.046875 10.69140625 C7.21474934 16.52283052 6.81337026 19.94264381 2.80859375 24.51953125 C-0.83270562 26.94706416 -2.81457015 27.31111048 -7.19140625 27.51953125 C-12.63437889 26.40682815 -17.76385842 24.30175053 -22.94140625 22.33203125 C-26.83633056 20.89619051 -29.99332815 19.88981953 -34.19140625 20.51953125 C-35.18140625 21.17953125 -36.17140625 21.83953125 -37.19140625 22.51953125 C-37.09389532 24.93236725 -37.09389532 24.93236725 -36.19140625 27.51953125 C-33.93530731 29.23441935 -33.93530731 29.23441935 -31.00390625 30.45703125 C-29.91980469 30.96234375 -28.83570313 31.46765625 -27.71875 31.98828125 C-24.18507731 33.5222787 -20.62836146 34.99011432 -17.06640625 36.45703125 C-7.15139519 40.66571841 3.32032032 46.70829038 7.90234375 56.96875 C10.85799732 65.90412861 10.58966239 73.85884025 6.80859375 82.51953125 C1.27410469 92.3676662 -6.26704869 98.67091815 -16.94140625 102.39453125 C-31.22010579 106.03774936 -46.99727196 105.39852434 -60.19140625 98.51953125 C-65.55412352 95.31305385 -70.31551866 91.6865117 -72.19140625 85.51953125 C-72.95480753 80.0643929 -72.89847773 75.90929244 -70.37890625 70.95703125 C-68.07032827 68.38461579 -66.39277506 66.71529461 -62.9140625 66.1484375 C-56.12323688 65.97891616 -51.27138739 67.40733125 -45.11328125 70.19921875 C-36.9025245 74.02933495 -36.9025245 74.02933495 -28.12890625 73.76953125 C-25.35075146 72.80346855 -25.35075146 72.80346855 -24.19140625 71.51953125 C-23.43798108 69.19437626 -23.43798108 69.19437626 -24.19140625 66.51953125 C-29.11527128 62.53853399 -34.6788153 60.46447259 -40.50390625 58.14453125 C-50.66927614 54.07992667 -61.33925537 49.27865786 -67.19140625 39.51953125 C-70.79774047 30.46612971 -71.17352665 21.85005279 -67.44140625 12.83203125 C-66.71936179 11.38028814 -65.97023237 9.9416199 -65.19140625 8.51953125 C-64.86527344 7.90207031 -64.53914063 7.28460938 -64.203125 6.6484375 C-59.61152348 -0.84839553 -50.62299669 -5.90432526 -42.2421875 -8.04296875 C-27.34269768 -10.17964335 -12.51118043 -9.06773627 0 0 Z " fill="#5FC0CF" transform="translate(1551.19140625,145.48046875)"/>
<path d="M0 0 C9.24 0 18.48 0 28 0 C28.33 25.74 28.66 51.48 29 78 C35.89367858 67.16061521 35.89367858 67.16061521 41.9140625 55.84375 C44.74863656 50.00209452 47.46387027 44.65871995 53 41 C63.41446802 38.4396639 74.46501967 39.70704476 85 41 C83.77039463 44.36967911 82.43113662 47.02428501 80.19921875 49.828125 C79.63976563 50.53751221 79.0803125 51.24689941 78.50390625 51.9777832 C77.60478516 53.10253052 77.60478516 53.10253052 76.6875 54.25 C75.43096294 55.85284369 74.17445323 57.45570883 72.91796875 59.05859375 C70.34169681 62.32195748 67.73621583 65.55923291 65.11328125 68.78515625 C63.90868565 70.29413633 62.70425215 71.80324582 61.5 73.3125 C60.91822998 74.01084961 60.33645996 74.70919922 59.73706055 75.42871094 C58.30085176 77.24310289 57.03926723 78.93312255 56 81 C56.59230494 85.62426026 60.49377244 89.55217379 63.3125 93.1875 C64.39459481 94.60703294 65.4752704 96.02764861 66.5546875 97.44921875 C67.11768555 98.18962402 67.68068359 98.9300293 68.26074219 99.69287109 C71.20132912 103.59356544 74.0734726 107.54290806 76.9375 111.5 C77.73377808 112.59284302 77.73377808 112.59284302 78.54614258 113.70776367 C81.90374029 118.35359989 85.02632291 123.09965716 88 128 C83.44726373 128.27382288 78.89939079 128.47230307 74.34033203 128.60424805 C72.79358419 128.65927006 71.24740097 128.73412755 69.70263672 128.82983398 C56.94715393 129.59977436 56.94715393 129.59977436 52.34790039 125.82104492 C50.25259568 122.97927705 48.60773804 120.14039364 47 117 C46.02985062 115.44014891 45.05017392 113.88616001 44.05859375 112.33984375 C43.1799122 110.8753745 42.30611196 109.40796411 41.4375 107.9375 C37.55609413 101.39090089 33.38528611 95.26469445 29 89 C28.67 101.87 28.34 114.74 28 128 C18.76 128 9.52 128 0 128 C0 85.76 0 43.52 0 0 Z " fill="#73D48B" transform="translate(1128,318)"/>
<path d="M0 0 C8.91 0 17.82 0 27 0 C27.33 26.07 27.66 52.14 28 79 C31.3 73.72 34.6 68.44 38 63 C39.97026584 59.93070625 41.94309809 56.86576989 43.9375 53.8125 C44.84324244 52.42369493 45.74821241 51.03438571 46.65234375 49.64453125 C47.03382568 49.06034424 47.41530762 48.47615723 47.80834961 47.87426758 C49.11509411 45.92534268 49.11509411 45.92534268 50.17724609 43.30273438 C52 41 52 41 55.36987305 40.43237305 C56.75074137 40.43316264 58.13177087 40.46130255 59.51171875 40.51171875 C60.60405571 40.52233086 60.60405571 40.52233086 61.71846008 40.53315735 C64.04252237 40.56112919 66.3641673 40.6238635 68.6875 40.6875 C70.26363705 40.71257969 71.83981191 40.73539345 73.41601562 40.75585938 C77.27827398 40.81096374 81.13872732 40.89724772 85 41 C83.59806835 44.01030345 81.94856634 46.5579478 79.9453125 49.203125 C79.33550537 50.01128662 78.72569824 50.81944824 78.09741211 51.65209961 C77.12106812 52.9380603 77.12106812 52.9380603 76.125 54.25 C75.46185791 55.13373291 74.79871582 56.01746582 74.11547852 56.92797852 C70.88462519 61.22766813 67.62376695 65.49494318 64.26953125 69.69921875 C63.70540527 70.41754883 63.1412793 71.13587891 62.56005859 71.87597656 C61.49862991 73.22456275 60.42257377 74.56179525 59.33056641 75.88574219 C57.70677452 77.87882058 57.70677452 77.87882058 56 81 C56.65798218 85.87220141 60.92578535 90.28828724 63.8125 94.1875 C64.98324265 95.78763625 66.15381023 97.38790059 67.32421875 98.98828125 C67.9279834 99.81021973 68.53174805 100.6321582 69.15380859 101.47900391 C72.16747987 105.5942075 75.14439784 109.73581784 78.125 113.875 C79.18959466 115.35192989 80.25466548 116.82851673 81.3203125 118.3046875 C81.76648926 118.92327637 82.21266602 119.54186523 82.67236328 120.17919922 C83.64225157 121.5093623 84.6455716 122.81532952 85.66748047 124.10595703 C87 126 87 126 87 128 C58.91049859 130.65448551 58.91049859 130.65448551 51.59912109 126.70214844 C47.90990148 123.08551398 46.15803382 118.48410981 44.25830078 113.7578125 C41.75799031 108.27789261 38.16889218 103.41995048 34.8125 98.4375 C32.564375 94.993125 30.31625 91.54875 28 88 C27.67 101.2 27.34 114.4 27 128 C18.09 128 9.18 128 0 128 C0 85.76 0 43.52 0 0 Z " fill="#73D48B" transform="translate(1032,318)"/>
<path d="M0 0 C9.73408619 8.80526118 14.22573489 19.3377489 15.24609375 32.40234375 C15.7254382 44.61736271 13.14492841 57.40056554 5.046875 66.8515625 C4.54542969 67.47289062 4.04398438 68.09421875 3.52734375 68.734375 C-3.78067989 76.94923369 -14.55900948 81.08056909 -25.33740234 82.07055664 C-39.37928738 82.75119446 -52.37213458 81.58809913 -63.953125 72.8515625 C-64.77554688 72.24570312 -65.59796875 71.63984375 -66.4453125 71.015625 C-69.06049064 68.75891364 -70.72352364 66.63125779 -72.578125 63.7265625 C-73.14789062 62.85773438 -73.71765625 61.98890625 -74.3046875 61.09375 C-78.3356161 53.16562029 -79.43928995 45.6706485 -79.328125 36.8515625 C-79.34552734 35.47097656 -79.34552734 35.47097656 -79.36328125 34.0625 C-79.31443162 22.5014211 -75.73023319 12.28183302 -67.94921875 3.62109375 C-50.91365159 -12.62212145 -18.77020294 -14.80200568 0 0 Z M-46.328125 18.1640625 C-52.35905086 25.39106584 -51.60257263 34.90797876 -51.15283203 43.77294922 C-50.60557198 49.4690031 -48.49323802 53.31144948 -44.515625 57.2890625 C-38.65174554 60.86459875 -33.77033126 61.54205124 -26.953125 60.8515625 C-21.98506671 59.16429742 -18.6290273 56.34935572 -15.953125 51.8515625 C-11.8558133 42.50969183 -11.6981431 32.45375909 -14.953125 22.8515625 C-18.01445188 17.16624115 -21.80587978 13.90064424 -27.953125 11.8515625 C-35.32421595 11.27343772 -41.2781116 12.61027647 -46.328125 18.1640625 Z " fill="#73D48B" transform="translate(791.953125,366.1484375)"/>
<path d="M0 0 C6.8436354 4.79563299 9.96729933 11.70585395 11.53831482 19.75967407 C12.00226825 23.01591967 12.12023463 26.08503161 12.11352539 29.37255859 C12.11341209 31.23380875 12.11341209 31.23380875 12.11329651 33.13265991 C12.10819113 34.47125286 12.10297515 35.80984539 12.09765625 37.1484375 C12.09578906 38.52991688 12.09436658 39.91139692 12.09336853 41.2928772 C12.08956702 44.91288103 12.07975716 48.53284417 12.06866455 52.15283203 C12.05839935 55.8531844 12.05380505 59.55354361 12.04882812 63.25390625 C12.03866445 70.50264 12.01908679 77.75126228 12 85 C3.09 85 -5.82 85 -15 85 C-15.04898437 81.50664062 -15.09796875 78.01328125 -15.1484375 74.4140625 C-15.20255323 71.00500457 -15.25981905 67.59601296 -15.31738281 64.18701172 C-15.35550385 61.83029181 -15.39038516 59.47351706 -15.421875 57.11669922 C-15.46789381 53.71562184 -15.52582589 50.31491657 -15.5859375 46.9140625 C-15.59748871 45.87198639 -15.60903992 44.82991028 -15.62094116 43.7562561 C-15.83686657 31.400726 -15.83686657 31.400726 -20 20 C-24.83312446 17.40661614 -29.81481812 17.5529725 -35 19 C-38.70325457 21.10715971 -41.63406937 23.90220811 -43 28 C-44.28224813 33.86974063 -44.2242628 39.76233021 -44.31640625 45.7421875 C-44.33718735 46.86569611 -44.35796844 47.98920471 -44.37937927 49.14675903 C-44.44457224 52.72277932 -44.50361884 56.29887077 -44.5625 59.875 C-44.605714 62.30469475 -44.6493292 64.7343824 -44.69335938 67.1640625 C-44.80097473 73.10930323 -44.90027346 79.05460079 -45 85 C-53.91 85 -62.82 85 -72 85 C-72 56.29 -72 27.58 -72 -2 C-63.09 -2 -54.18 -2 -45 -2 C-44.67 1.63 -44.34 5.26 -44 9 C-42.865625 7.7625 -41.73125 6.525 -40.5625 5.25 C-29.7673084 -5.58354041 -13.37807393 -7.11105822 0 0 Z " fill="#73D48B" transform="translate(1911,361)"/>
<path d="M0 0 C7.90019703 6.79784396 11.74544174 15.49910719 13.6875 25.5625 C14.16612424 32.35896421 14 39.18670367 14 46 C-4.48 46 -22.96 46 -42 46 C-39.10856918 54.67429245 -38.22759791 57.1742714 -30.6875 61.25 C-19.65741933 64.32816205 -7.86214489 63.05305958 2.328125 57.8046875 C4 57 4 57 6 57 C6 63.6 6 70.2 6 77 C-9.86091553 83.79753523 -28.70222633 86.3810249 -45.2734375 80.2578125 C-55.76091363 75.41975045 -62.76885341 68.96138622 -66.875 58.0625 C-68.62877705 52.66891682 -69.83850072 47.66324141 -70 42 C-70.05027344 41.32195312 -70.10054687 40.64390625 -70.15234375 39.9453125 C-70.76539635 26.55624366 -66.38485354 13.59646575 -57.375 3.6875 C-42.21231484 -10.45853003 -16.64498918 -13.02820415 0 0 Z M-37.6875 16.9375 C-40.82141239 21.08781641 -42 22.75771763 -42 28 C-32.1 28 -22.2 28 -12 28 C-12.64961058 19.3261202 -12.64961058 19.3261202 -17 13 C-24.60155524 8.35460513 -32.05643533 10.78261536 -37.6875 16.9375 Z " fill="#73D48B" transform="translate(1287,365)"/>
<path d="M0 0 C7.80667479 7.09954845 10.87627585 14.70105382 13.15625 24.9609375 C13.15625 31.8909375 13.15625 38.8209375 13.15625 45.9609375 C-5.32375 45.9609375 -23.80375 45.9609375 -42.84375 45.9609375 C-39.18439775 56.03450469 -39.18439775 56.03450469 -31.65625 61.1484375 C-20.52215569 64.36495363 -8.84945532 63.00094355 1.44921875 57.765625 C3.15625 56.9609375 3.15625 56.9609375 5.15625 56.9609375 C5.15625 63.5609375 5.15625 70.1609375 5.15625 76.9609375 C-5.15055717 81.54174069 -13.08388886 83.3455745 -24.21875 83.2734375 C-25.1363208 83.26779785 -26.0538916 83.2621582 -26.99926758 83.25634766 C-39.13275576 83.03973567 -49.75698718 80.5308155 -58.87890625 72.07421875 C-69.34491579 60.76381779 -70.42978496 48.19427625 -70.15234375 33.40234375 C-69.63082269 20.8187547 -64.82360339 10.28331305 -55.53125 1.6484375 C-39.85290461 -10.7606565 -16.17340444 -12.44511965 0 0 Z M-39.09375 17.3984375 C-41.5124656 20.9401282 -42.84375 23.6476979 -42.84375 27.9609375 C-32.94375 27.9609375 -23.04375 27.9609375 -12.84375 27.9609375 C-12.84375 20.53679245 -12.8995215 19.50417756 -16.84375 13.9609375 C-20.47301563 10.74644508 -23.94466611 10.43804739 -28.6328125 10.609375 C-33.27454948 11.34746039 -36.0117228 14.0595747 -39.09375 17.3984375 Z " fill="#73D48B" transform="translate(1003.84375,365.0390625)"/>
<path d="M0 0 C2.6875 2.5 2.6875 2.5 5 5 C5.53625 5.45375 6.0725 5.9075 6.625 6.375 C14.23044678 15.36325529 13.29552769 30.27246654 13.1953125 41.30078125 C13.1924826 42.5031694 13.18965271 43.70555756 13.18673706 44.94438171 C13.17566289 48.7338616 13.1505829 52.52309319 13.125 56.3125 C13.11495368 58.90299135 13.10583075 61.49348645 13.09765625 64.08398438 C13.07747862 70.38949239 13.0383056 76.69447272 13 83 C4.42 83 -4.16 83 -13 83 C-13.33 79.7 -13.66 76.4 -14 73 C-14.680625 73.9075 -15.36125 74.815 -16.0625 75.75 C-20.9062432 81.55154553 -27.82719967 84.57480945 -35.296875 85.3359375 C-44.44930308 85.43947175 -51.67107096 84.57607181 -58.875 78.625 C-66.22152937 69.54987549 -66.65975129 62.38370869 -66 51 C-64.93340753 45.51586706 -62.33055758 40.58290526 -58 37 C-44.7349497 28.277483 -28.37297873 27.61720692 -13 26 C-15.20616757 19.80876111 -15.20616757 19.80876111 -19.4375 14.9375 C-30.66734884 11.98227662 -40.58677579 14.64069034 -51 19 C-52.67176664 19.99145049 -54.3399082 20.98912267 -56 22 C-56.66 22 -57.32 22 -58 22 C-58 15.07 -58 8.14 -58 1 C-40.53073268 -6.91576175 -17.14072032 -10.6109221 0 0 Z M-23.1875 43.25 C-24.46463867 43.41435547 -24.46463867 43.41435547 -25.76757812 43.58203125 C-31.84661472 44.47531582 -36.46526851 45.80403421 -40.4375 50.8125 C-41.31325348 54.218208 -40.89136765 56.61280292 -40 60 C-37.62872505 63.1165328 -35.93221106 64.66101416 -32.25 66 C-27.1748006 66 -22.38216597 64.95636818 -18.3828125 61.671875 C-13.05173884 55.67836024 -12.6958059 49.60485249 -13 42 C-16.38690688 42 -19.84274932 42.76970272 -23.1875 43.25 Z " fill="#73D48B" transform="translate(1806,363)"/>
<path d="M0 0 C7.32686401 6.3940805 10.03590878 15.18226623 10.90234375 24.66015625 C11.03738055 29.04466637 11.0186991 33.42627548 11 37.8125 C10.99858505 39.06776993 10.9971701 40.32303986 10.99571228 41.61634827 C10.99107951 44.93220976 10.98211514 48.24800077 10.9710083 51.56384277 C10.96072667 54.95596705 10.95614524 58.34809885 10.95117188 61.74023438 C10.94102205 68.38024766 10.92144255 75.02013859 10.90234375 81.66015625 C2.32234375 81.66015625 -6.25765625 81.66015625 -15.09765625 81.66015625 C-15.42765625 78.36015625 -15.75765625 75.06015625 -16.09765625 71.66015625 C-16.92265625 72.73265625 -17.74765625 73.80515625 -18.59765625 74.91015625 C-22.72818226 79.74541655 -27.86438386 82.46058764 -34.09765625 83.66015625 C-42.63476201 84.31602961 -50.68858153 84.38344139 -58.09765625 79.66015625 C-63.95206313 74.54863813 -67.7071501 68.98013051 -68.41015625 61.203125 C-68.70848372 51.8524234 -67.81284847 45.20094674 -61.84765625 37.91015625 C-48.30880248 26.83291226 -31.9051258 26.56231165 -15.09765625 24.66015625 C-15.70390265 23.19963647 -16.32047567 21.74340013 -16.94140625 20.2890625 C-17.45477539 19.07198608 -17.45477539 19.07198608 -17.97851562 17.83032227 C-19.03131715 15.43905214 -19.03131715 15.43905214 -21.59765625 13.59765625 C-34.57579864 10.12136811 -46.64372462 14.60902256 -58.09765625 20.66015625 C-58.75765625 20.66015625 -59.41765625 20.66015625 -60.09765625 20.66015625 C-60.09765625 13.73015625 -60.09765625 6.80015625 -60.09765625 -0.33984375 C-41.60882621 -7.78673363 -17.31165496 -12.74112761 0 0 Z M-25.28515625 41.91015625 C-26.56229492 42.07451172 -26.56229492 42.07451172 -27.86523438 42.2421875 C-33.94427097 43.13547207 -38.56292476 44.46419046 -42.53515625 49.47265625 C-43.41090973 52.87836425 -42.9890239 55.27295917 -42.09765625 58.66015625 C-39.7263813 61.77668905 -38.02986731 63.32117041 -34.34765625 64.66015625 C-29.27629115 64.66015625 -24.44074061 63.63536504 -20.48046875 60.296875 C-15.01936022 54.04406731 -14.82054355 48.58865844 -15.09765625 40.66015625 C-18.48456313 40.66015625 -21.94040557 41.42985897 -25.28515625 41.91015625 Z " fill="#73D48B" transform="translate(1666.09765625,364.33984375)"/>
<path d="M0 0 C0 7.26 0 14.52 0 22 C-2.70182292 20.99088542 -5.40364583 19.98177083 -8.10546875 18.97265625 C-12.78532555 17.40007279 -17.06685323 16.82550735 -22 16.75 C-23.010625 16.72421875 -24.02125 16.6984375 -25.0625 16.671875 C-28.45277297 17.0505757 -30.29616807 17.9466411 -33 20 C-33.88658466 22.59122743 -33.88658466 22.59122743 -34 25 C-29.58192289 29.10771632 -24.80109732 30.81548316 -19.25 32.875 C-1.52475754 39.77920237 -1.52475754 39.77920237 3.0625 47.5625 C6.04151037 54.465085 6.35442094 61.66227304 4.11328125 68.83984375 C-0.19604764 78.36045409 -6.59669914 82.18709597 -16.03515625 86.01953125 C-30.84273807 90.9163732 -47.44871282 88.35178682 -62 84 C-62 76.74 -62 69.48 -62 62 C-58.21040126 62.75791975 -55.41886143 63.5364292 -51.9375 65 C-46.43759819 67.30504359 -42.13571838 68.17244234 -36.125 68.25 C-34.33449219 68.28867187 -34.33449219 68.28867187 -32.5078125 68.328125 C-28.66060532 67.96825261 -26.28270356 66.99986398 -23 65 C-21.58975409 63.19310088 -21.58975409 63.19310088 -22 61 C-26.1357644 55.71348944 -31.08849701 54.16901881 -37.3125 52.0625 C-45.69685701 49.22426183 -54.32555244 45.98283663 -58.9375 37.875 C-59.31777344 37.23304688 -59.69804688 36.59109375 -60.08984375 35.9296875 C-63.22654509 29.27934217 -62.86845778 21.64659625 -60.5 14.8125 C-56.54036252 6.04080309 -49.56436226 2.40376313 -40.9296875 -1.0546875 C-27.60108602 -5.35538291 -13.2989226 -3.09877808 0 0 Z " fill="#73D48B" transform="translate(1372,360)"/>
<path d="M0 0 C0 8.58 0 17.16 0 26 C6.27 26 12.54 26 19 26 C19 32.6 19 39.2 19 46 C12.73 46 6.46 46 0 46 C0.09704216 51.60546173 0.19983955 57.21020257 0.31738281 62.81518555 C0.35561339 64.72104486 0.39047655 66.62697487 0.421875 68.53295898 C0.46765422 71.27613553 0.5256273 74.01882788 0.5859375 76.76171875 C0.59748871 77.61086349 0.60903992 78.46000824 0.62094116 79.33488464 C0.72727892 83.61871156 0.92098531 87.13957719 3 91 C6.36583282 93.61786997 9.88360847 93.21665219 14 93 C15.67042567 92.68604625 17.3380972 92.35632564 19 92 C19.08685287 95.29150125 19.14033895 98.5827096 19.1875 101.875 C19.21263672 102.81214844 19.23777344 103.74929688 19.26367188 104.71484375 C19.27333984 105.61074219 19.28300781 106.50664062 19.29296875 107.4296875 C19.3086792 108.25710449 19.32438965 109.08452148 19.34057617 109.93701172 C19.17199097 110.95819092 19.17199097 110.95819092 19 112 C11.4250841 117.04994393 -1.24434948 115.96179949 -9.96875 114.50390625 C-16.17504569 112.62288855 -20.98174213 109.18652927 -24.25 103.5 C-29.37770254 91.61233605 -28.24443931 77.84243344 -28.125 65.1875 C-28.1149448 63.31966629 -28.10582347 61.4518273 -28.09765625 59.58398438 C-28.0758562 55.05585691 -28.04146802 50.5279883 -28 46 C-32.62 46 -37.24 46 -42 46 C-42 39.4 -42 32.8 -42 26 C-37.38 26 -32.76 26 -28 26 C-28 20.06 -28 14.12 -28 8 C-22.37828494 5.89185685 -16.92206158 3.98782205 -11.1875 2.3125 C-10.06311523 1.97508789 -10.06311523 1.97508789 -8.91601562 1.63085938 C-5.85288775 0.73026146 -3.21006657 0 0 0 Z " fill="#73D48B" transform="translate(906,333)"/>
<path d="M0 0 C9.24 0 18.48 0 28 0 C28 42.24 28 84.48 28 128 C18.76 128 9.52 128 0 128 C0 85.76 0 43.52 0 0 Z " fill="#73D48B" transform="translate(823,318)"/>
<path d="M0 0 C8.91 0 17.82 0 27 0 C27 42.24 27 84.48 27 128 C18.09 128 9.18 128 0 128 C0 85.76 0 43.52 0 0 Z " fill="#73D48B" transform="translate(1697,318)"/>
<path d="M0 0 C19.2795303 -0.02332767 38.55905774 -0.04097853 57.83859921 -0.05181217 C66.78978382 -0.05697541 75.74095968 -0.06401863 84.69213867 -0.07543945 C92.49110388 -0.08538545 100.29006276 -0.09185322 108.08903414 -0.09408849 C112.22112186 -0.09539575 116.35319144 -0.09848251 120.48527336 -0.10573006 C124.37001526 -0.11248894 128.25473146 -0.11461723 132.13947868 -0.11310768 C133.56939839 -0.11338407 134.99931891 -0.11538998 136.42923355 -0.11920547 C138.37318051 -0.12414059 140.31714109 -0.12239805 142.26109314 -0.12025452 C143.35157424 -0.12117631 144.44205534 -0.1220981 145.56558132 -0.12304783 C148 0 148 0 149 1 C149.09666937 2.96161604 149.12187097 4.92676645 149.12025452 6.89076233 C149.12231651 8.81125145 149.12231651 8.81125145 149.12442017 10.77053833 C149.12088055 12.20257591 149.11724573 13.63461326 149.11352539 15.06665039 C149.11324353 16.56431578 149.11340124 18.0619813 149.1139679 19.55964661 C149.11425591 23.63798172 149.10835864 27.71628767 149.10139394 31.79461598 C149.09516095 36.05207628 149.09455665 40.30953718 149.09336853 44.56700134 C149.09025505 52.63473187 149.08204144 60.70244891 149.07201904 68.77017349 C149.06085842 77.95260779 149.05534758 87.13504272 149.05032361 96.31748211 C149.03985884 115.2116624 149.02225907 134.10583012 149 153 C145.37944784 152.23310122 143.81047317 151.14569278 141.25 148.4375 C140.63640625 147.79683594 140.0228125 147.15617188 139.390625 146.49609375 C138.93171875 146.00238281 138.4728125 145.50867188 138 145 C138.66 144.67 139.32 144.34 140 144 C141.98 145.65 143.96 147.3 146 149 C146.33 100.82 146.66 52.64 147 3 C99.48 3 51.96 3 3 3 C4.88331078 8.16622138 4.88331078 8.16622138 9 10 C11.14954892 11.85978129 13.20265555 13.79525748 15 16 C15 16.66 15 17.32 15 18 C15.88945312 18.38285156 15.88945312 18.38285156 16.796875 18.7734375 C19.21224538 20.11816498 20.51211706 21.49214367 22.25 23.625 C22.77078125 24.25664062 23.2915625 24.88828125 23.828125 25.5390625 C24.40820312 26.26222656 24.40820312 26.26222656 25 27 C22 27 22 27 19.9140625 25.2421875 C19.15867188 24.46101563 18.40328125 23.67984375 17.625 22.875 C16.82964844 22.05515625 16.03429687 21.2353125 15.21484375 20.390625 C13.47092682 18.50830197 11.8021018 16.61684521 10.1875 14.625 C8.24826167 12.29791401 6.40682219 10.78283125 4 9 C4 8.34 4 7.68 4 7 C3.01 6.67 2.02 6.34 1 6 C0.67 4.02 0.34 2.04 0 0 Z " fill="#D5DE20" transform="translate(198,279)"/>
<path d="M0 0 C11.06534858 -0.02312283 22.13069145 -0.04091478 33.19605923 -0.05181217 C38.33359566 -0.05704113 43.47111563 -0.06413901 48.60864258 -0.07543945 C53.5623141 -0.08626787 58.51596974 -0.09227674 63.46965218 -0.09487724 C65.36397616 -0.09673157 67.25829924 -0.10035234 69.1526165 -0.10573006 C71.79634386 -0.11293989 74.44000471 -0.11399097 77.08374023 -0.11352539 C77.87495773 -0.11712067 78.66617523 -0.12071594 79.48136902 -0.12442017 C84.88594784 -0.11405216 84.88594784 -0.11405216 86 1 C86.09706134 3.2529102 86.12186638 5.50893179 86.12025452 7.76393127 C86.12110894 8.47940736 86.12196337 9.19488345 86.12284368 9.93204063 C86.12450058 12.34737814 86.11897371 14.76264733 86.11352539 17.17797852 C86.11324354 18.90224201 86.11340121 20.62650562 86.1139679 22.35076904 C86.11425595 27.04685147 86.10835802 31.74290859 86.10139394 36.43898511 C86.09516164 41.34107159 86.0945567 46.24315858 86.09336853 51.14524841 C86.09025485 60.43482896 86.08204096 69.7243978 86.07201904 79.01397318 C86.06085905 89.5869496 86.05534774 100.15992657 86.05032361 110.73290741 C86.03985838 132.48861149 86.02225823 154.24430501 86 176 C74.01248823 176.04640205 62.02499794 176.08190922 50.03741455 176.10362434 C44.47071147 176.11404808 38.90406998 176.1281816 33.33740234 176.15087891 C27.96224362 176.17265746 22.58714403 176.18457923 17.21194458 176.18975449 C15.16430735 176.19344124 13.11667324 176.20064051 11.06906128 176.21146011 C8.19440797 176.22604157 5.31999702 176.22797515 2.4453125 176.22705078 C1.60445602 176.23424133 0.76359955 176.24143188 -0.10273743 176.24884033 C-5.38976429 176.23052209 -9.91658053 175.46972737 -15 174 C-15 173.67 -15 173.34 -15 173 C17.67 173.33 50.34 173.66 84 174 C84 117.57 84 61.14 84 3 C56.28 3 28.56 3 0 3 C0 2.01 0 1.02 0 0 Z " fill="#57BBB6" transform="translate(81,183)"/>
<path d="M0 0 C0.99 0 1.98 0 3 0 C3 50.49 3 100.98 3 153 C-45.84 153 -94.68 153 -145 153 C-145.33 152.01 -145.66 151.02 -146 150 C-144.671875 148.0625 -144.671875 148.0625 -142.75 146 C-142.12609375 145.319375 -141.5021875 144.63875 -140.859375 143.9375 C-140.24578125 143.298125 -139.6321875 142.65875 -139 142 C-138.46890625 141.4225 -137.9378125 140.845 -137.390625 140.25 C-136 139 -136 139 -134 139 C-133.01 137.02 -133.01 137.02 -132 135 C-131.1875 136.6875 -131.1875 136.6875 -131 139 C-133.53816609 142.03169839 -135.22508911 143.74169637 -139 145 C-140.20882096 147.00016466 -140.20882096 147.00016466 -141 149 C-141.99 149 -142.98 149 -144 149 C-144 149.66 -144 150.32 -144 151 C-95.82 151 -47.64 151 2 151 C1.67 103.48 1.34 55.96 1 7 C-1.04106848 6.78455281 -1.04106848 6.78455281 -2.35250854 8.14564514 C-2.86894928 8.68160812 -3.38539001 9.21757111 -3.91748047 9.76977539 C-4.5050412 10.37362564 -5.09260193 10.97747589 -5.69796753 11.59962463 C-6.64798141 12.58865028 -6.64798141 12.58865028 -7.6171875 13.59765625 C-8.95919889 14.96982811 -10.30166082 16.34155945 -11.64453125 17.71289062 C-13.76530391 19.8895249 -15.88198944 22.06975317 -17.99072266 24.25805664 C-20.02185008 26.36150415 -22.0681487 28.44917387 -24.1171875 30.53515625 C-24.74648163 31.19653091 -25.37577576 31.85790558 -26.0241394 32.5393219 C-26.61800446 33.14001999 -27.21186951 33.74071808 -27.82373047 34.35961914 C-28.60077835 35.16237022 -28.60077835 35.16237022 -29.39352417 35.9813385 C-31 37 -31 37 -33.19851685 36.6650238 C-33.79300629 36.44556595 -34.38749573 36.22610809 -35 36 C-32.29817708 33.29817708 -29.59635417 30.59635417 -26.89453125 27.89453125 C-26.40742676 27.40678223 -25.92032227 26.9190332 -25.41845703 26.41650391 C-24.13126367 25.13108293 -22.83748208 23.85226768 -21.54296875 22.57421875 C-18.45507915 19.44838274 -15.47624764 16.23174917 -12.5 13 C-8.74094654 8.91824357 -4.95259729 4.89531327 -1 1 C-0.67 0.67 -0.34 0.34 0 0 Z " fill="#D5D73E" transform="translate(344,111)"/>
<path d="M0 0 C0.33 0 0.66 0 1 0 C1 56.1 1 112.2 1 170 C19.15 170 37.3 170 56 170 C55.67 170.66 55.34 171.32 55 172 C47.18547248 172.02526563 39.37095542 172.04283105 31.55639648 172.05493164 C28.89558519 172.05997383 26.23477668 172.06680736 23.57397461 172.07543945 C19.75894484 172.08751009 15.94395156 172.09322929 12.12890625 172.09765625 C10.33206139 172.10539818 10.33206139 172.10539818 8.49891663 172.11329651 C6.84731789 172.11340981 6.84731789 172.11340981 5.16235352 172.11352539 C3.7000808 172.11685631 3.7000808 172.11685631 2.20826721 172.12025452 C0 172 0 172 -1 171 C-1.09916391 168.8276202 -1.1263239 166.651952 -1.12698364 164.47731018 C-1.12854363 163.78774654 -1.13010362 163.0981829 -1.13171089 162.38772339 C-1.1357231 160.05997466 -1.13253039 157.73229031 -1.12939453 155.40454102 C-1.13074849 153.7426347 -1.13252839 152.08072868 -1.13470459 150.41882324 C-1.13927996 145.8920256 -1.13748885 141.36525064 -1.1343255 136.83845258 C-1.13180201 132.11080185 -1.13413945 127.38315312 -1.13571167 122.65550232 C-1.13753358 114.71360931 -1.13512669 106.77172559 -1.13037109 98.82983398 C-1.1249303 89.63729882 -1.12668972 80.44478583 -1.1321975 71.25225121 C-1.13673026 63.37285756 -1.13737832 55.49347061 -1.13475883 47.61407608 C-1.13319672 42.90238229 -1.13300047 38.19069894 -1.13629532 33.47900581 C-1.13917633 29.04924859 -1.13719407 24.61952005 -1.13140106 20.18976593 C-1.13007462 18.56031021 -1.13046562 16.9308521 -1.13266373 15.30139732 C-1.13537982 13.08412303 -1.13198842 10.86694176 -1.12698364 8.64967346 C-1.12660662 7.40655175 -1.12622959 6.16343004 -1.12584114 4.88263798 C-1 2 -1 2 0 0 Z " fill="#898C35" transform="translate(360,92)"/>
<path d="M0 0 C2.88437779 1.29299694 4.87219421 2.65941363 7 5 C6.67 5.66 6.34 6.32 6 7 C4.35 5.68 2.7 4.36 1 3 C1 63.06 1 123.12 1 185 C0.34 185 -0.32 185 -1 185 C-1.02332624 161.02665225 -1.04097782 137.05330618 -1.05181217 113.07994938 C-1.05697571 101.94953597 -1.06401952 90.8191296 -1.07543945 79.6887207 C-1.08538451 69.99119784 -1.091853 60.29368007 -1.09408849 50.59615225 C-1.0953959 45.45802171 -1.09848366 40.31990574 -1.10573006 35.18177986 C-1.11248747 30.35150554 -1.11461753 25.52125188 -1.11310768 20.69097328 C-1.11338414 18.91274147 -1.1153909 17.13450902 -1.11920547 15.35628128 C-1.12413838 12.93936364 -1.1229998 10.52252533 -1.12025452 8.10560608 C-1.12316736 7.39258443 -1.1260802 6.67956279 -1.12908131 5.94493443 C-1.11412121 1.11412121 -1.11412121 1.11412121 0 0 Z " fill="#84CDCB" transform="translate(181,283)"/>
<path d="M0 0 C0.66 0 1.32 0 2 0 C2 59.07 2 118.14 2 179 C2.99 179 3.98 179 5 179 C4.67 179.99 4.34 180.98 4 182 C2.68 182 1.36 182 0 182 C0 121.94 0 61.88 0 0 Z " fill="#85CECC" transform="translate(180,75)"/>
<path d="M0 0 C48.84 0 97.68 0 148 0 C148 0.66 148 1.32 148 2 C99.82 2 51.64 2 2 2 C2.99 3.32 3.98 4.64 5 6 C5 6.66 5 7.32 5 8 C5.53625 8.20625 6.0725 8.4125 6.625 8.625 C9.91978009 10.53250426 12.59363628 13.04819384 15 16 C15 16.66 15 17.32 15 18 C15.88945312 18.38285156 15.88945312 18.38285156 16.796875 18.7734375 C19.21224538 20.11816498 20.51211706 21.49214367 22.25 23.625 C22.77078125 24.25664062 23.2915625 24.88828125 23.828125 25.5390625 C24.40820312 26.26222656 24.40820312 26.26222656 25 27 C22 27 22 27 19.9140625 25.2421875 C19.15867188 24.46101563 18.40328125 23.67984375 17.625 22.875 C16.82964844 22.05515625 16.03429687 21.2353125 15.21484375 20.390625 C13.47092682 18.50830197 11.8021018 16.61684521 10.1875 14.625 C8.24826167 12.29791401 6.40682219 10.78283125 4 9 C4 8.34 4 7.68 4 7 C3.01 6.67 2.02 6.34 1 6 C0.67 4.02 0.34 2.04 0 0 Z " fill="#ADB266" transform="translate(198,279)"/>
<path d="M0 0 C0.99 0 1.98 0 3 0 C3 50.16 3 100.32 3 152 C2.67 152 2.34 152 2 152 C1.67 104.15 1.34 56.3 1 7 C-1.04106848 6.78455281 -1.04106848 6.78455281 -2.35250854 8.14564514 C-2.86894928 8.68160812 -3.38539001 9.21757111 -3.91748047 9.76977539 C-4.5050412 10.37362564 -5.09260193 10.97747589 -5.69796753 11.59962463 C-6.33131012 12.25897507 -6.96465271 12.9183255 -7.6171875 13.59765625 C-8.95919889 14.96982811 -10.30166082 16.34155945 -11.64453125 17.71289062 C-13.76530391 19.8895249 -15.88198944 22.06975317 -17.99072266 24.25805664 C-20.02185008 26.36150415 -22.0681487 28.44917387 -24.1171875 30.53515625 C-24.74648163 31.19653091 -25.37577576 31.85790558 -26.0241394 32.5393219 C-26.91493698 33.44036903 -26.91493698 33.44036903 -27.82373047 34.35961914 C-28.60077835 35.16237022 -28.60077835 35.16237022 -29.39352417 35.9813385 C-31 37 -31 37 -33.19851685 36.6650238 C-33.79300629 36.44556595 -34.38749573 36.22610809 -35 36 C-32.29817708 33.29817708 -29.59635417 30.59635417 -26.89453125 27.89453125 C-26.40742676 27.40678223 -25.92032227 26.9190332 -25.41845703 26.41650391 C-24.13126367 25.13108293 -22.83748208 23.85226768 -21.54296875 22.57421875 C-18.45507915 19.44838274 -15.47624764 16.23174917 -12.5 13 C-8.74094654 8.91824357 -4.95259729 4.89531327 -1 1 C-0.67 0.67 -0.34 0.34 0 0 Z " fill="#D5DC53" transform="translate(344,111)"/>
<path d="M0 0 C0.33 0.99 0.66 1.98 1 3 C0.0479279 4.00596297 -0.91187346 5.00461563 -1.875 6 C-2.40867187 6.556875 -2.94234375 7.11375 -3.4921875 7.6875 C-5 9 -5 9 -7 9 C-7 64.44 -7 119.88 -7 177 C10.82 177 28.64 177 47 177 C47 176.34 47 175.68 47 175 C47.99 175 48.98 175 50 175 C49.34 176.32 48.68 177.64 48 179 C29.52 178.67 11.04 178.34 -8 178 C-8.18061858 155.82524797 -8.32797284 133.65109186 -8.41449738 111.47579098 C-8.45574083 101.17931209 -8.51196524 90.88332282 -8.60351562 80.5871582 C-8.68327732 71.61252041 -8.73487136 62.63823719 -8.75270796 53.6632548 C-8.76313393 48.91126106 -8.78761747 44.16028167 -8.84584045 39.4086132 C-8.90022142 34.93416533 -8.91687736 30.46114756 -8.90486145 25.9864006 C-8.90705891 24.34606587 -8.92292846 22.70568239 -8.9536438 21.06563377 C-9.17492298 8.63884315 -9.17492298 8.63884315 -6.15794373 4.43060493 C-4.18293829 2.68153353 -2.30357772 1.27570445 0 0 Z " fill="#D5DE16" transform="translate(369,84)"/>
<path d="M0 0 C0.99 0.33 1.98 0.66 3 1 C2.67 61.06 2.34 121.12 2 183 C2.99 183 3.98 183 5 183 C4.505 183.99 4.505 183.99 4 185 C3.01 184.67 2.02 184.34 1 184 C1 124.93 1 65.86 1 5 C0.34 4.67 -0.32 4.34 -1 4 C-0.67 2.68 -0.34 1.36 0 0 Z " fill="#27B5B0" transform="translate(181,70)"/>
<path d="M0 0 C0.33 0 0.66 0 1 0 C1 50.16 1 100.32 1 152 C-3.12592993 150.96851752 -3.97070497 150.37713898 -6.75 147.4375 C-7.36359375 146.79683594 -7.9771875 146.15617188 -8.609375 145.49609375 C-9.06828125 145.00238281 -9.5271875 144.50867188 -10 144 C-9.34 143.67 -8.68 143.34 -8 143 C-5.95880212 144.61594832 -3.95927063 146.2856382 -2 148 C-2 148.66 -2 149.32 -2 150 C-1.34 150 -0.68 150 0 150 C0 100.5 0 51 0 0 Z " fill="#D1D952" transform="translate(346,280)"/>
<path d="M0 0 C0.66 0.33 1.32 0.66 2 1 C-2.466498 5.59300249 -6.95227316 10.16650115 -11.45214844 14.72680664 C-12.9814288 16.28127171 -14.50619698 17.84018906 -16.02636719 19.40356445 C-18.20905612 21.64672554 -20.40733643 23.87350791 -22.609375 26.09765625 C-23.2886908 26.80277847 -23.96800659 27.5079007 -24.66790771 28.23439026 C-25.30826965 28.87512985 -25.94863159 29.51586945 -26.60839844 30.17602539 C-27.44778961 31.03207115 -27.44778961 31.03207115 -28.30413818 31.90541077 C-30 33 -30 33 -32.2119751 32.67649841 C-32.80202332 32.45325394 -33.39207153 32.23000946 -34 32 C-31.29817708 29.29817708 -28.59635417 26.59635417 -25.89453125 23.89453125 C-25.40726562 23.40637939 -24.92 22.91822754 -24.41796875 22.4152832 C-23.13527862 21.13502241 -21.84354717 19.86383581 -20.55078125 18.59375 C-18.57083889 16.58045486 -16.66286326 14.54516635 -14.7734375 12.44921875 C-14.2165625 11.83369141 -13.6596875 11.21816406 -13.0859375 10.58398438 C-11.93208262 9.30499683 -10.7837482 8.02101008 -9.640625 6.73242188 C-9.08632813 6.12333984 -8.53203125 5.51425781 -7.9609375 4.88671875 C-7.46384277 4.33201904 -6.96674805 3.77731934 -6.45458984 3.20581055 C-5 2 -5 2 -2 2 C-1.34 1.34 -0.68 0.68 0 0 Z " fill="#CED712" transform="translate(343,115)"/>
<path d="M0 0 C2.47923801 -0.02685095 4.9581884 -0.04676547 7.4375 -0.0625 C8.14455078 -0.07087891 8.85160156 -0.07925781 9.58007812 -0.08789062 C11.38693559 -0.09653588 13.19387603 -0.05220011 15 0 C15.33 0.33 15.66 0.66 16 1 C18.64651343 1.12509834 21.26822219 1.18605995 23.91625977 1.20532227 C24.74545929 1.21522186 25.57465881 1.22512146 26.4289856 1.23532104 C29.18309629 1.2670312 31.93722426 1.29173088 34.69140625 1.31640625 C36.59570273 1.33696757 38.49999455 1.35796382 40.40428162 1.37937927 C45.42662806 1.43468485 50.44901627 1.48405656 55.47143555 1.53222656 C60.59232315 1.58237979 65.7131498 1.63809803 70.83398438 1.69335938 C80.8892709 1.80104467 90.94461025 1.90246645 101 2 C101 2.33 101 2.66 101 3 C89.01248823 3.04640205 77.02499794 3.08190922 65.03741455 3.10362434 C59.47071147 3.11404808 53.90406998 3.1281816 48.33740234 3.15087891 C42.96224362 3.17265746 37.58714403 3.18457923 32.21194458 3.18975449 C30.16430735 3.19344124 28.11667324 3.20064051 26.06906128 3.21146011 C23.19440797 3.22604157 20.31999702 3.22797515 17.4453125 3.22705078 C16.60445602 3.23424133 15.76359955 3.24143188 14.89726257 3.24884033 C9.61023571 3.23052209 5.08341947 2.46972737 0 1 C0 0.67 0 0.34 0 0 Z " fill="#58B6B4" transform="translate(66,356)"/>
<path d="M0 0 C2.95265112 1.32994383 5.02350216 2.77779316 7.29980469 5.07275391 C8.23031647 6.00349228 8.23031647 6.00349228 9.17962646 6.95303345 C10.16578949 7.95468033 10.16578949 7.95468033 11.171875 8.9765625 C11.8542926 9.66181 12.53671021 10.3470575 13.23980713 11.05307007 C15.41461598 13.23905845 17.58236072 15.43190429 19.75 17.625 C21.2247999 19.10983255 22.70005506 20.59421306 24.17578125 22.078125 C27.78915448 25.7135291 31.39620853 29.35509824 35 33 C34.34 33.66 33.68 34.32 33 35 C32.67 34.01 32.34 33.02 32 32 C30.67565052 31.31566041 29.34110059 30.65090047 28 30 C26.3671875 28.30859375 26.3671875 28.30859375 24.875 26.4375 C22.79096366 23.78974334 22.79096366 23.78974334 20 22 C20 21.34 20 20.68 20 20 C19.01 19.67 18.02 19.34 17 19 C17 18.34 17 17.68 17 17 C16.10087891 16.60748047 16.10087891 16.60748047 15.18359375 16.20703125 C12.86938236 14.92779812 11.70340555 13.73749558 10.0625 11.6875 C8.19096388 9.4084902 6.34469512 7.34469512 4.25 5.25 C2 3 2 3 0 0 Z " fill="#BAC054" transform="translate(242,327)"/>
<path d="M0 0 C0.33 0.66 0.66 1.32 1 2 C0.34 2 -0.32 2 -1 2 C-1.2475 2.61875 -1.495 3.2375 -1.75 3.875 C-3 6 -3 6 -4.87109375 6.8984375 C-7.35245696 8.18237222 -8.55774865 9.58901743 -10.3125 11.75 C-13.17027209 15.14476166 -16.16058541 17.99885555 -19.6171875 20.7734375 C-21.14103109 21.97175539 -21.14103109 21.97175539 -22 24 C-22.66 24 -23.32 24 -24 24 C-18.8972791 13.07968425 -9.8920933 6.34108545 0 0 Z " fill="#41ADA8" transform="translate(40,196)"/>
<path d="M0 0 C0.99 0.66 1.98 1.32 3 2 C1.0843735 4.08429801 -0.83246061 6.16746303 -2.75 8.25 C-3.28882813 8.83652344 -3.82765625 9.42304688 -4.3828125 10.02734375 C-5.43723582 11.17177882 -6.49637726 12.31188763 -7.56054688 13.44726562 C-8.7833356 14.76628467 -9.96657571 16.12179225 -11.140625 17.484375 C-11.75421875 17.98453125 -12.3678125 18.4846875 -13 19 C-15.11621094 18.59472656 -15.11621094 18.59472656 -17 18 C-16.10796875 17.11957031 -15.2159375 16.23914063 -14.296875 15.33203125 C-13.11444899 14.15898957 -11.93216481 12.98580491 -10.75 11.8125 C-9.87021484 10.9452832 -9.87021484 10.9452832 -8.97265625 10.06054688 C-5.75018163 6.85617604 -2.75826734 3.62534642 0 0 Z " fill="#C8CF46" transform="translate(280,176)"/>
<path d="M0 0 C-11.86194847 3.66493304 -22.61724958 4.48454241 -35 4 C-35.33 3.34 -35.66 2.68 -36 2 C-34.82026611 1.91697632 -34.82026611 1.91697632 -33.61669922 1.83227539 C-30.03591805 1.57861693 -26.45546359 1.3206009 -22.875 1.0625 C-21.6375 0.97548828 -20.4 0.88847656 -19.125 0.79882812 C-17.92617188 0.71181641 -16.72734375 0.62480469 -15.4921875 0.53515625 C-14.39245605 0.456604 -13.29272461 0.37805176 -12.15966797 0.29711914 C-8.97699274 0.0452387 -8.97699274 0.0452387 -5.78173828 -0.59594727 C-3 -1 -3 -1 0 0 Z " fill="#BEC253" transform="translate(442,471)"/>
<path d="M0 0 C0.66 0 1.32 0 2 0 C2 0.66 2 1.32 2 2 C2.99 2.33 3.98 2.66 5 3 C6.35827971 4.64639965 7.69254251 6.31295807 9 8 C9.66 8.33 10.32 8.66 11 9 C11 9.66 11 10.32 11 11 C11.66 11 12.32 11 13 11 C14.41015625 12.43359375 14.41015625 12.43359375 16.0625 14.4375 C20.12068366 19.22341701 24.52000931 23.6114377 29 28 C28.67 28.66 28.34 29.32 28 30 C24.25651042 26.25651042 20.51302083 22.51302083 16.76953125 18.76953125 C15.79886719 17.79995483 15.79886719 17.79995483 14.80859375 16.81079102 C13.6988291 15.69967811 12.59148109 14.58613709 11.48828125 13.46850586 C9.51987916 11.47703656 7.58213363 9.67167642 5.375 7.9375 C3.1219674 6.09949972 1.55070393 4.44847989 0 2 C0 1.34 0 0.68 0 0 Z " fill="#5BBBB6" transform="translate(304,408)"/>
<path d="M0 0 C7.46544655 -0.77051627 14.22954021 0.52611733 21.4375 2.3125 C22.31374023 2.52543701 23.18998047 2.73837402 24.09277344 2.95776367 C31.79358597 4.95435325 31.79358597 4.95435325 35 8 C34.67 8.66 34.34 9.32 34 10 C33.34 10 32.68 10 32 10 C32 9.34 32 8.68 32 8 C31.4946875 7.87496094 30.989375 7.74992187 30.46875 7.62109375 C28.48722165 7.12257633 26.50871279 6.6120638 24.53125 6.09765625 C16.3980078 3.99966783 8.32477824 2.19826353 0 1 C0 0.67 0 0.34 0 0 Z " fill="#C9CF4F" transform="translate(417,69)"/>
<path d="M0 0 C0.87205078 0.35384766 0.87205078 0.35384766 1.76171875 0.71484375 C1.10171875 0.71484375 0.44171875 0.71484375 -0.23828125 0.71484375 C-0.23828125 1.37484375 -0.23828125 2.03484375 -0.23828125 2.71484375 C-0.89828125 2.71484375 -1.55828125 2.71484375 -2.23828125 2.71484375 C-2.61146484 3.57335937 -2.61146484 3.57335937 -2.9921875 4.44921875 C-4.42253498 7.04985053 -6.08492799 8.86230974 -8.17578125 10.96484375 C-8.86542969 11.67125 -9.55507812 12.37765625 -10.265625 13.10546875 C-12.23828125 14.71484375 -12.23828125 14.71484375 -15.23828125 14.71484375 C-15.89828125 16.03484375 -16.55828125 17.35484375 -17.23828125 18.71484375 C-17.23828125 13.78076011 -13.49157572 11.18257382 -10.23828125 7.71484375 C-9.19607422 6.55855469 -9.19607422 6.55855469 -8.1328125 5.37890625 C-7.44574219 4.64414062 -6.75867188 3.909375 -6.05078125 3.15234375 C-5.10138672 2.12947266 -5.10138672 2.12947266 -4.1328125 1.0859375 C-2.23828125 -0.28515625 -2.23828125 -0.28515625 0 0 Z " fill="#4BBAB4" transform="translate(215.23828125,16.28515625)"/>
<path d="M0 0 C0.99 0 1.98 0 3 0 C2.34 1.32 1.68 2.64 1 4 C-17.15 3.67 -35.3 3.34 -54 3 C-54 2.67 -54 2.34 -54 2 C-36.18 2 -18.36 2 0 2 C0 1.34 0 0.68 0 0 Z " fill="#CAD313" transform="translate(416,259)"/>
<path d="M0 0 C1.9375 0.8125 1.9375 0.8125 4 2 C4.33 2.99 4.66 3.98 5 5 C5.556875 5.268125 6.11375 5.53625 6.6875 5.8125 C10.03764163 7.532843 12.62425507 10.08575288 15 13 C15 13.66 15 14.32 15 15 C15.59296875 15.25523437 16.1859375 15.51046875 16.796875 15.7734375 C19.21224538 17.11816498 20.51211706 18.49214367 22.25 20.625 C22.77078125 21.25664062 23.2915625 21.88828125 23.828125 22.5390625 C24.40820312 23.26222656 24.40820312 23.26222656 25 24 C22 24 22 24 19.9140625 22.2421875 C19.15867188 21.46101563 18.40328125 20.67984375 17.625 19.875 C16.82964844 19.05515625 16.03429687 18.2353125 15.21484375 17.390625 C13.47092682 15.50830197 11.8021018 13.61684521 10.1875 11.625 C8.24826167 9.29791401 6.40682219 7.78283125 4 6 C4 5.34 4 4.68 4 4 C3.01 3.67 2.02 3.34 1 3 C0.67 2.01 0.34 1.02 0 0 Z " fill="#ADB24D" transform="translate(198,282)"/>
<path d="M0 0 C0.66 0 1.32 0 2 0 C0.74572218 3.76283345 -1.14062723 5.27035686 -4 8 C-4.82346924 8.82346924 -5.64693848 9.64693848 -6.49536133 10.49536133 C-12.66357422 16.66357422 -18.83178711 22.83178711 -25 29 C-25.66 28.67 -26.32 28.34 -27 28 C-24.29817708 25.29817708 -21.59635417 22.59635417 -18.89453125 19.89453125 C-18.40847412 19.40766846 -17.92241699 18.92080566 -17.42163086 18.41918945 C-16.11759612 17.11739416 -14.80528951 15.82389871 -13.4921875 14.53125 C-10.15127796 11.13797511 -6.99277169 7.59091534 -3.84179688 4.02148438 C-2.60114589 2.64393397 -1.30457158 1.31717614 0 0 Z " fill="#C9CE61" transform="translate(336,119)"/>
<path d="M0 0 C4.13438922 0.54053852 6.38029957 1.8031137 9.625 4.375 C14.79119676 8.16406298 19.76720532 9.75581095 26 11 C25.67 11.66 25.34 12.32 25 13 C15.20003263 11.27593167 7.55479826 7.53007829 0 1 C0 0.67 0 0.34 0 0 Z " fill="#D1D74D" transform="translate(369,458)"/>
<path d="M0 0 C0.66 0.33 1.32 0.66 2 1 C0.71291421 6.71824681 -1.03206489 11.85060045 -3.4375 17.1875 C-3.73720703 17.87263672 -4.03691406 18.55777344 -4.34570312 19.26367188 C-5.99877993 22.98936992 -7.6612682 26.64499477 -10 30 C-10.66 30 -11.32 30 -12 30 C-10.82867566 25.99797518 -9.26627539 22.63749597 -7.1484375 19.0546875 C-3.82282013 13.10477344 -0.55772868 6.8786537 0 0 Z " fill="#53B6B1" transform="translate(347,476)"/>
<path d="M0 0 C0.33 0.66 0.66 1.32 1 2 C-0.49786883 5.51999175 -1.94585316 8.60979813 -5 11 C-5.66 11 -6.32 11 -7 11 C-7.226875 11.639375 -7.45375 12.27875 -7.6875 12.9375 C-9 15 -9 15 -11.625 15.75 C-12.40875 15.8325 -13.1925 15.915 -14 16 C-9.40525596 10.60117576 -4.72323727 5.28666913 0 0 Z " fill="#C4C94B" transform="translate(236,221)"/>
<path d="M0 0 C0 3.17370278 -0.30933342 4.3794668 -2 7 C-2.93779297 7.433125 -2.93779297 7.433125 -3.89453125 7.875 C-6.4052943 9.21655799 -7.35923712 10.58977932 -8.9375 12.9375 C-11.271032 16.18672177 -13.21079073 18.4211628 -17 20 C-17.66 19.67 -18.32 19.34 -19 19 C-12.66666667 12.66666667 -6.33333333 6.33333333 0 0 Z " fill="#B4B759" transform="translate(262,195)"/>
<path d="M0 0 C7.10749458 6.67673733 12.61612957 13.39640769 15 23 C12.0112974 20.21741482 10.01194551 17.5410241 8 14 C4.77446945 8.69049042 4.77446945 8.69049042 1.1875 3.625 C0 2 0 2 0 0 Z " fill="#C6CC50" transform="translate(474,94)"/>
<path d="M0 0 C0 0.99 0 1.98 0 3 C-5.30094216 4.80304155 -10.60308488 6.50723624 -16 8 C-16 7.01 -16 6.02 -16 5 C-10.74567937 2.54053077 -5.69139902 1.09698167 0 0 Z " fill="#3FA49F" transform="translate(248,0)"/>
<path d="M0 0 C0.8125 1.6875 0.8125 1.6875 1 4 C-1.53816609 7.03169839 -3.22508911 8.74169637 -7 10 C-8.20882096 12.00016466 -8.20882096 12.00016466 -9 14 C-10.32 13.67 -11.64 13.34 -13 13 C-11.54782324 11.49403892 -10.08807139 9.99537896 -8.625 8.5 C-7.40683594 7.24703125 -7.40683594 7.24703125 -6.1640625 5.96875 C-4 4 -4 4 -2 4 C-1.34 2.68 -0.68 1.36 0 0 Z " fill="#A9AE39" transform="translate(212,246)"/>
<path d="M0 0 C6.13842918 5.18356242 12.07341663 10.57712263 18 16 C17.34 16.66 16.68 17.32 16 18 C14.29115995 16.37660195 12.62553283 14.70680947 11 13 C11 12.34 11 11.68 11 11 C10.46375 10.773125 9.9275 10.54625 9.375 10.3125 C5.69476708 8.27868707 1.62492953 6.00121943 0.32421875 1.8359375 C0.21722656 1.23007812 0.11023438 0.62421875 0 0 Z " fill="#CDD64E" transform="translate(424,289)"/>
<path d="M0 0 C7.51496232 3.38009222 12.35040993 10.4428858 17 17 C16.67 17.66 16.34 18.32 16 19 C12.48944863 16.86859381 11.16342868 14.48477786 9.28125 10.91015625 C7.23511365 7.85966639 4.46217926 5.75542397 1.609375 3.48046875 C1.07828125 2.99191406 0.5471875 2.50335937 0 2 C0 1.34 0 0.68 0 0 Z " fill="#54B9B3" transform="translate(321,19)"/>
<path d="M0 0 C2 2 2 2 2.1953125 5.2578125 C2.17210937 6.53398438 2.14890625 7.81015625 2.125 9.125 C2.10695313 10.40632813 2.08890625 11.68765625 2.0703125 13.0078125 C2.04710937 13.99523437 2.02390625 14.98265625 2 16 C1.34 16 0.68 16 0 16 C-0.98204842 12.71871122 -1.13412615 9.73024479 -1.125 6.3125 C-1.12757813 5.33925781 -1.13015625 4.36601563 -1.1328125 3.36328125 C-1 1 -1 1 0 0 Z " fill="#2E9B97" transform="translate(350,72)"/>
<path d="M0 0 C0.66 0.66 1.32 1.32 2 2 C1.652194 6.22547291 -0.13764791 9.58565873 -2.0625 13.3125 C-2.61035156 14.38113281 -3.15820312 15.44976562 -3.72265625 16.55078125 C-4.14417969 17.35902344 -4.56570313 18.16726562 -5 19 C-5.33 19 -5.66 19 -6 19 C-6.125 16.625 -6.125 16.625 -6 14 C-5.34 13.34 -4.68 12.68 -4 12 C-2.13011787 8.03584988 -0.65783106 4.34168501 0 0 Z " fill="#C5CB4A" transform="translate(489,176)"/>
<path d="M0 0 C0 3 0 3 -2.375 5.4375 C-3.24125 6.283125 -4.1075 7.12875 -5 8 C-6.29519995 10.16620544 -6.29519995 10.16620544 -7 12 C-7.66 12 -8.32 12 -9 12 C-9 12.66 -9 13.32 -9 14 C-10.32 13.67 -11.64 13.34 -13 13 C-8.66666667 8.66666667 -4.33333333 4.33333333 0 0 Z " fill="#A8AB54" transform="translate(300,156)"/>
<path d="M0 0 C0.66 0 1.32 0 2 0 C2.33 4.62 2.66 9.24 3 14 C2.01 14.33 1.02 14.66 0 15 C0 10.05 0 5.1 0 0 Z " fill="#B8BD32" transform="translate(494,139)"/>
<path d="M0 0 C0.33 0.99 0.66 1.98 1 3 C0.0479279 4.00596297 -0.91187346 5.00461563 -1.875 6 C-2.40867187 6.556875 -2.94234375 7.11375 -3.4921875 7.6875 C-5 9 -5 9 -7 9 C-7.33 10.32 -7.66 11.64 -8 13 C-8.5 10.4375 -8.5 10.4375 -8 7 C-5.58004962 4.34123873 -2.86556402 2.16196571 0 0 Z " fill="#CDD436" transform="translate(369,84)"/>
<path d="M0 0 C3.71060708 2.11939179 6.99883918 4.4923892 10.3125 7.1875 C11.19550781 7.90292969 12.07851563 8.61835937 12.98828125 9.35546875 C13.65214844 9.89816406 14.31601562 10.44085938 15 11 C14.34 11.66 13.68 12.32 13 13 C12.01 12.34 11.02 11.68 10 11 C10 10.34 10 9.68 10 9 C9.34 9 8.68 9 8 9 C8 8.34 8 7.68 8 7 C7.38125 6.690625 6.7625 6.38125 6.125 6.0625 C4.75 5.375 3.375 4.6875 2 4 C2 3.34 2 2.68 2 2 C1.34 2 0.68 2 0 2 C0 1.34 0 0.68 0 0 Z " fill="#B1B747" transform="translate(459,81)"/>
<path d="M0 0 C0.33 0.99 0.66 1.98 1 3 C-2.96 6.96 -6.92 10.92 -11 15 C-11 11.07290865 -9.72099538 10.1810287 -7.125 7.3125 C-6.40570313 6.50425781 -5.68640625 5.69601563 -4.9453125 4.86328125 C-3 3 -3 3 -1 3 C-0.67 2.01 -0.34 1.02 0 0 Z " fill="#BCC149" transform="translate(478,199)"/>
<path d="M0 0 C0.66 0 1.32 0 2 0 C2 0.66 2 1.32 2 2 C2.99 2.33 3.98 2.66 5 3 C6.35827971 4.64639965 7.69254251 6.31295807 9 8 C9.66 8.33 10.32 8.66 11 9 C11 9.66 11 10.32 11 11 C11.66 11.33 12.32 11.66 13 12 C7.85275603 11.40608723 4.35774367 7.58403428 1.125 3.8125 C0 2 0 2 0 0 Z " fill="#49A29D" transform="translate(304,408)"/>
<path d="M0 0 C4.13621084 3.3810038 7.81316569 6.66590534 11 11 C10.01 11.495 10.01 11.495 9 12 C9 11.34 9 10.68 9 10 C8.443125 9.79375 7.88625 9.5875 7.3125 9.375 C4.02987629 7.42316968 2.29326754 5.05769006 0 2 C0 1.34 0 0.68 0 0 Z " fill="#51A4A1" transform="translate(289,392)"/>
<path d="M0 0 C3.21043882 1.38188453 5.04936365 2.92421903 7.25 5.625 C8.03117188 6.57246094 8.03117188 6.57246094 8.828125 7.5390625 C9.40820312 8.26222656 9.40820312 8.26222656 10 9 C7 9 7 9 5.17578125 7.5390625 C4.56089844 6.90742188 3.94601563 6.27578125 3.3125 5.625 C2.68988281 4.99851562 2.06726563 4.37203125 1.42578125 3.7265625 C0 2 0 2 0 0 Z " fill="#919734" transform="translate(213,297)"/>
<path d="M0 0 C3.21043882 1.38188453 5.04936365 2.92421903 7.25 5.625 C8.03117187 6.57246094 8.03117187 6.57246094 8.828125 7.5390625 C9.40820312 8.26222656 9.40820312 8.26222656 10 9 C9.01 9 8.02 9 7 9 C7 8.34 7 7.68 7 7 C6.401875 6.731875 5.80375 6.46375 5.1875 6.1875 C3.00152146 5.00082594 1.58667406 3.90400887 0 2 C0 1.34 0 0.68 0 0 Z " fill="#989E38" transform="translate(267,352)"/>
<path d="M0 0 C3.05001831 3.66002197 7 9.07851471 7 14 C4 13 4 13 2.375 9.8125 C1.10258101 6.58815031 0.42058494 3.44879647 0 0 Z " fill="#ACB146" transform="translate(484,350)"/>
<path d="M0 0 C0.66 0.33 1.32 0.66 2 1 C0.90653119 2.34212062 -0.2001575 3.67347975 -1.3125 5 C-2.23482422 6.11375 -2.23482422 6.11375 -3.17578125 7.25 C-5 9 -5 9 -8 9 C-6.625 7 -6.625 7 -5 5 C-4.34 5 -3.68 5 -3 5 C-2.690625 4.360625 -2.38125 3.72125 -2.0625 3.0625 C-1 1 -1 1 0 0 Z " fill="#3D9793" transform="translate(198,239)"/>
<path d="M0 0 C4.84659077 0.59104765 8.60748167 1.97944157 13 4 C12.34 4.66 11.68 5.32 11 6 C9.53919067 5.38080922 8.08142545 4.75443308 6.625 4.125 C5.81289063 3.77695313 5.00078125 3.42890625 4.1640625 3.0703125 C2 2 2 2 0 0 Z " fill="#4EA8A1" transform="translate(294,4)"/>
<path d="M0 0 C3.21043882 1.38188453 5.04936365 2.92421903 7.25 5.625 C8.03117187 6.57246094 8.03117187 6.57246094 8.828125 7.5390625 C9.40820312 8.26222656 9.40820312 8.26222656 10 9 C9.01 9 8.02 9 7 9 C5.28859531 7.03814584 3.62126675 5.03697617 2 3 C1.34 2.67 0.68 2.34 0 2 C0 1.34 0 0.68 0 0 Z " fill="#A4AA3B" transform="translate(315,401)"/>
<path d="M0 0 C4.41889613 1.35021826 6.34345343 3.26115668 9 7 C8.67 7.66 8.34 8.32 8 9 C6.84775972 8.07038578 5.70340824 7.1309875 4.5625 6.1875 C3.60537109 5.40439453 3.60537109 5.40439453 2.62890625 4.60546875 C1 3 1 3 0 0 Z " fill="#45B2AE" transform="translate(21,329)"/>
<path d="M0 0 C0.33 0.66 0.66 1.32 1 2 C0.34 2 -0.32 2 -1 2 C-1.226875 2.598125 -1.45375 3.19625 -1.6875 3.8125 C-3.3611297 6.60188284 -5.08817726 7.6168842 -8 9 C-8.66 8.67 -9.32 8.34 -10 8 C-8.71064081 6.85157077 -7.41843421 5.70633773 -6.125 4.5625 C-5.04605469 3.60537109 -5.04605469 3.60537109 -3.9453125 2.62890625 C-2 1 -2 1 0 0 Z " fill="#58BEBA" transform="translate(40,196)"/>
<path d="M0 0 C0.66 0.33 1.32 0.66 2 1 C0.71520959 2.50589388 -0.57804082 4.00457375 -1.875 5.5 C-2.95394531 6.75296875 -2.95394531 6.75296875 -4.0546875 8.03125 C-4.69664062 8.6809375 -5.33859375 9.330625 -6 10 C-6.66 10 -7.32 10 -8 10 C-7.67 9.01 -7.34 8.02 -7 7 C-6.34 7 -5.68 7 -5 7 C-4.67 6.01 -4.34 5.02 -4 4 C-3.34 4 -2.68 4 -2 4 C-1.34 2.68 -0.68 1.36 0 0 Z " fill="#CBD148" transform="translate(476,445)"/>
<path d="M0 0 C1 2 1 2 0.375 3.9375 C-1.3792518 6.5688777 -3.16320216 7.65252103 -6 9 C-6.66 8.67 -7.32 8.34 -8 8 C-5.36 5.36 -2.72 2.72 0 0 Z " fill="#B8BD60" transform="translate(221,237)"/>
<path d="M0 0 C0.33 0.99 0.66 1.98 1 3 C-1.31 4.98 -3.62 6.96 -6 9 C-6 6 -6 6 -4.6875 4.39453125 C-4.130625 3.87246094 -3.57375 3.35039062 -3 2.8125 C-2.443125 2.28269531 -1.88625 1.75289062 -1.3125 1.20703125 C-0.6628125 0.60955078 -0.6628125 0.60955078 0 0 Z " fill="#378381" transform="translate(242,195)"/>
<path d="M0 0 C0.66 0.33 1.32 0.66 2 1 C-0.97 3.97 -3.94 6.94 -7 10 C-7.66 9.67 -8.32 9.34 -9 9 C-8.06725891 7.87105124 -7.12859878 6.74699124 -6.1875 5.625 C-5.66542969 4.99851562 -5.14335937 4.37203125 -4.60546875 3.7265625 C-3 2 -3 2 0 0 Z " fill="#54BDB2" transform="translate(330,107)"/>
<path d="M0 0 C0.66 0.33 1.32 0.66 2 1 C0.66511872 4.59391114 -0.96022723 7.75490696 -3 11 C-3.66 10.67 -4.32 10.34 -5 10 C-3.35 6.7 -1.7 3.4 0 0 Z " fill="#3F9C96" transform="translate(192,40)"/>
<path d="M0 0 C0.33 0.66 0.66 1.32 1 2 C0.67 2.99 0.34 3.98 0 5 C-0.66 5 -1.32 5 -2 5 C-2.33 6.65 -2.66 8.3 -3 10 C-3.66 10 -4.32 10 -5 10 C-3.14285714 2.42857143 -3.14285714 2.42857143 0 0 Z " fill="#4AB4AE" transform="translate(15,220)"/>
<path d="M0 0 C4.41889613 1.35021826 6.34345343 3.26115668 9 7 C6 7 6 7 3.375 4.625 C1 2 1 2 0 0 Z " fill="#45928E" transform="translate(204,517)"/>
<path d="M0 0 C0 0.99 0 1.98 0 3 C-1 4 -1 4 -4.0625 4.0625 C-5.5165625 4.0315625 -5.5165625 4.0315625 -7 4 C-7 3.34 -7 2.68 -7 2 C-4.69 1.34 -2.38 0.68 0 0 Z " fill="#4EBBB6" transform="translate(248,0)"/>
<path d="M0 0 C3.36720387 1.39332574 4.9859524 2.9789286 7 6 C4 6 4 6 1.8125 4.125 C0 2 0 2 0 0 Z " fill="#919732" transform="translate(435,300)"/>
<path d="M0 0 C0.33 1.32 0.66 2.64 1 4 C-0.8125 5.5625 -0.8125 5.5625 -3 7 C-3.99 6.67 -4.98 6.34 -6 6 C-5.38125 5.7525 -4.7625 5.505 -4.125 5.25 C-1.64931313 3.79371361 -1.04874998 2.62187494 0 0 Z " fill="#999E3B" transform="translate(212,246)"/>
<path d="M0 0 C-1.39332574 3.36720387 -2.9789286 4.9859524 -6 7 C-6 4 -6 4 -4.125 1.8125 C-2 0 -2 0 0 0 Z " fill="#90972F" transform="translate(431,247)"/>
<path d="M0 0 C0.66 0 1.32 0 2 0 C2 1.98 2 3.96 2 6 C1.01 6.33 0.02 6.66 -1 7 C-0.67 4.69 -0.34 2.38 0 0 Z " fill="#3BADA7" transform="translate(1,250)"/>
</svg>
